<svg width="12" height="12" viewBox="0 0 12 12" fill="none" xmlns="http://www.w3.org/2000/svg">
<g clip-path="url(#clip0)">
<path d="M5.67168 9.10369L0.136677 3.55333C-0.0445648 3.37148 -0.0442602 3.07706 0.137614 2.89551C0.319465 2.71411 0.61405 2.71458 0.795432 2.89645L6.001 8.11643L11.2065 2.89626C11.3879 2.71441 11.6823 2.71394 11.8642 2.89533C11.9554 2.98633 12.001 3.10556 12.001 3.22479C12.001 3.34371 11.9557 3.46247 11.8652 3.55331L6.33029 9.10369C6.24315 9.19127 6.12456 9.24042 6.001 9.24042C5.87744 9.24042 5.75898 9.19113 5.67168 9.10369Z" fill="#4F4F4F"/>
</g>
<defs>
<clipPath id="clip0">
<rect width="12" height="12" fill="white" transform="matrix(0 1 1 0 0.000976562 0)"/>
</clipPath>
</defs>
</svg>
