<svg width="40" height="40" viewBox="0 0 40 40" fill="none" xmlns="http://www.w3.org/2000/svg">
<path d="M4.71654 36.6666H2.56543V30.7377H4.58321C5.59062 30.7377 6.37581 31.0103 6.93876 31.5554C7.48987 32.0829 7.76543 32.8029 7.76543 33.7154C7.76543 34.5688 7.50765 35.2532 6.9921 35.7688C6.73136 36.0296 6.40543 36.2459 6.01432 36.4177C5.62321 36.5837 5.19062 36.6666 4.71654 36.6666ZM4.10321 32.0443V35.3599H4.41432C4.98914 35.3599 5.42173 35.2177 5.7121 34.9332C6.01432 34.6429 6.16543 34.237 6.16543 33.7154C6.16543 33.1407 6.01136 32.7081 5.70321 32.4177C5.43654 32.1688 5.02765 32.0443 4.47654 32.0443H4.10321Z" fill="#00A1E2"/>
<path d="M8.92383 30.7377H10.4616V36.6666H8.92383V30.7377Z" fill="#00A1E2"/>
<path d="M11.6211 36.1332L12.2789 34.8888C12.7055 35.2918 13.1589 35.4932 13.6389 35.4932C13.9114 35.4932 14.11 35.4251 14.2344 35.2888C14.3352 35.1881 14.3855 35.0636 14.3855 34.9154C14.3855 34.7732 14.3292 34.6548 14.2166 34.5599C14.1219 34.477 13.867 34.3732 13.4522 34.2488L13.0522 34.1243C12.6552 33.9999 12.3708 33.8399 12.1989 33.6443C11.9736 33.4014 11.8611 33.0518 11.8611 32.5954C11.8611 32.0029 12.0419 31.5259 12.4033 31.1643C12.7766 30.791 13.2833 30.6043 13.9233 30.6043C14.5336 30.6043 15.1441 30.7643 15.7544 31.0843L15.1411 32.2843C14.8033 32.0176 14.4655 31.8843 14.1278 31.8843C13.9144 31.8843 13.7455 31.9436 13.6211 32.0621C13.5203 32.1629 13.47 32.2695 13.47 32.3821C13.47 32.4888 13.4966 32.5776 13.55 32.6488C13.633 32.7495 13.8048 32.8384 14.0655 32.9154L14.5366 33.0576C15.0344 33.2118 15.393 33.4073 15.6122 33.6443C15.867 33.917 15.9944 34.2695 15.9944 34.7021C15.9944 35.3243 15.8078 35.8221 15.4344 36.1954C15.0314 36.5984 14.4478 36.7999 13.6833 36.7999C13.2625 36.7999 12.8744 36.7348 12.5189 36.6043C12.2166 36.4976 11.9174 36.3406 11.6211 36.1332Z" fill="#00A1E2"/>
<path d="M19.6502 34.7021H18.6813V36.6666H17.1436V30.7377H19.5969C20.231 30.7377 20.7318 30.9154 21.0991 31.271C21.4666 31.6266 21.6502 32.1066 21.6502 32.711C21.6502 33.351 21.4754 33.8429 21.1258 34.1866C20.7762 34.5303 20.2843 34.7021 19.6502 34.7021ZM18.6813 31.9821V33.4577H19.1969C19.4932 33.4577 19.7096 33.3954 19.8458 33.271C19.9762 33.1584 20.0413 32.9777 20.0413 32.7288C20.0413 32.4918 19.9821 32.314 19.8636 32.1954C19.7273 32.0532 19.508 31.9821 19.2058 31.9821H18.6813Z" fill="#00A1E2"/>
<path d="M22.6426 30.7377H24.1804V35.3599H26.0292V36.6666H22.6426V30.7377Z" fill="#00A1E2"/>
<path d="M30.9778 36.6666L30.6133 35.671H28.4622L28.0622 36.6666H26.4355L28.7111 30.7377H30.3911L32.6222 36.6666H30.9778ZM28.8889 34.4977H30.2044L29.5378 32.5777L28.8889 34.4977Z" fill="#00A1E2"/>
<path d="M34.2291 36.6666V33.8221L32.0869 30.7377H33.9269L35.0469 32.3554L36.1225 30.7377H37.9891L35.7758 33.8221V36.6666H34.2291Z" fill="#00A1E2"/>
<path fill-rule="evenodd" clip-rule="evenodd" d="M2.22244 5.04657L2.80217 4.66878L3.33353 5.03137L3.33355 10.5242L2.80217 10.8867L2.22244 10.509V5.04657ZM2.81637 12.2222L1.11133 11.1111V4.44442L2.81637 3.33331L4.44464 4.44442L4.44466 11.1111L2.81637 12.2222ZM2.22244 14.0278L2.77801 13.6111L3.33355 14.0278V20.4166L2.77801 20.8333L2.22244 20.4166V14.0278ZM1.29647 21.1111L1.11133 20.9722V13.4722L2.77801 12.2222L4.44466 13.4722V20H9.44466L11.6669 21.6666L9.44466 23.3333H4.44466L2.77801 22.2222L1.11133 21.1111H1.29647ZM37.2454 4.72229L36.6669 5.14646V11.5202L37.2454 11.9443L37.778 11.5355V5.13109L37.2454 4.72229ZM35.7452 12.2222L35.5558 12.0833V4.58331L37.2608 3.33331L38.8891 4.58331V12.0833L37.383 13.2395L38.8891 14.4444V21.1111L38.889 21.1112L36.1113 23.3333H31.1113L29.4447 22.2222L27.778 21.1111V14.4444L29.4447 13.3333L31.1113 12.2222H35.7452ZM31.1113 15.5555V20H35.5558V15.5555H31.1113ZM36.4038 13.8791L35.5558 14.4444H31.4478L30.6144 13.8889L31.4478 13.3333H35.7216L36.4038 13.8791ZM36.6669 15.1852V20.5164L37.2224 20.8869L37.778 20.5164V15.0391L37.332 14.7418L36.6669 15.1852ZM22.9632 13.8889H18.7039L17.9632 13.3333L18.7039 12.7778H22.9632L23.7039 13.3333L22.9632 13.8889ZM18.3336 15L17.778 14.5833V20H22.778L25.0002 21.6666L22.778 23.3333H17.778L16.1113 22.2222L14.4447 21.1111V14.4444L16.1113 13.3333L14.4447 12.2222V5.55554V5.5555L16.1113 4.44442L17.778 3.33331H22.778L25.0002 4.99998L22.778 6.66665H17.778V12.0833L18.3336 11.6666H23.3336L25.5558 13.3333L23.3336 15H18.3336ZM4.78108 21.1111L3.94775 21.6666L4.78108 22.2222H9.0743L9.81503 21.6666L9.0743 21.1111H4.78108ZM29.4447 14.6688L30.0002 15.0391V20.5164L29.4447 20.8869L28.8891 20.5164V15.0391L29.4447 14.6688ZM30.6144 21.6666L31.4478 22.2222H35.7216L36.2509 21.7988L35.2193 21.1111H31.4478L30.6144 21.6666ZM15.5558 15.0391L16.1113 14.6688L16.6669 15.0391V20.5164L16.1113 20.8869L15.5558 20.5164V15.0391ZM18.1144 21.1111L17.2811 21.6666L18.1144 22.2222H22.4077L23.1483 21.6666L22.4077 21.1111H18.1144ZM15.5558 11.6275L16.1113 11.9979L16.6669 11.6275V6.15016L16.1113 5.7798L15.5558 6.15017V11.6275ZM18.1144 5.55554L17.2811 4.99998L18.1144 4.44442H22.4077L23.1483 4.99998L22.4077 5.55554H18.1144Z" fill="#00A1E2"/>
</svg>
