<svg width="40" height="40" viewBox="0 0 40 40" fill="none" xmlns="http://www.w3.org/2000/svg">
<path d="M23.7534 0H17.3269C16.7133 0 16.2158 0.497461 16.2158 1.11111C16.2158 1.72476 16.7133 2.22222 17.3269 2.22222H23.7534C24.367 2.22222 24.8645 1.72476 24.8645 1.11111C24.8645 0.497461 24.367 0 23.7534 0Z" fill="#00A1E2"/>
<path d="M21.6221 7.80778V2.19216C21.6221 1.5951 21.1381 1.11108 20.541 1.11108C19.944 1.11108 19.46 1.5951 19.46 2.19216V7.80778C19.46 8.40485 19.944 8.88886 20.541 8.88886C21.1381 8.88886 21.6221 8.40485 21.6221 7.80778Z" fill="#00A1E2"/>
<path d="M21.6221 36.8176V34.4144C21.6221 33.8173 21.1381 33.3333 20.541 33.3333C19.944 33.3333 19.46 33.8173 19.46 34.4144V36.8176C19.46 37.4148 19.944 37.8988 20.541 37.8988C21.1381 37.8988 21.6221 37.4148 21.6221 36.8176Z" fill="#00A1E2"/>
<path d="M33.5437 22.2222H35.7635C36.3772 22.2222 36.8746 21.7248 36.8746 21.1111C36.8746 20.4974 36.3772 20 35.7635 20H33.5437C32.9301 20 32.4326 20.4974 32.4326 21.1111C32.4326 21.7248 32.9301 22.2222 33.5437 22.2222Z" fill="#00A1E2"/>
<path fill-rule="evenodd" clip-rule="evenodd" d="M37.8377 21.1111C37.8377 30.9295 30.0933 38.8889 20.5403 38.8889C14.8814 38.8889 9.85732 36.096 6.70156 31.7782H9.52425C12.2842 34.7879 16.1988 36.6666 20.5403 36.6666C28.8992 36.6666 35.6754 29.7022 35.6754 21.1111C35.6754 12.52 28.8992 5.55554 20.5403 5.55554C13.3713 5.55554 7.36651 10.6783 5.80215 17.5564H3.58887C5.19121 9.44134 12.1718 3.33331 20.5403 3.33331C30.0933 3.33331 37.8377 11.2926 37.8377 21.1111Z" fill="#00A1E2"/>
<path d="M4.74847 36.4952L5.05733 28.1369C5.07012 27.7906 5.38184 27.5365 5.71287 27.6024L13.7024 29.1945C14.1609 29.2858 14.3015 29.8872 13.9343 30.1867L5.63584 36.953C5.26861 37.2524 4.73075 36.975 4.74847 36.4952Z" fill="#00A1E2"/>
<path d="M19.4667 22.7501V24.4444H12.9727L15.5193 21.6031C16.139 20.8907 16.6017 20.2998 16.9073 19.8305C17.2469 19.2744 17.4167 18.7835 17.4167 18.3578C17.4167 17.9928 17.3062 17.7061 17.0855 17.4975C16.9073 17.3324 16.6483 17.2499 16.3088 17.2499C15.9778 17.2499 15.7188 17.3542 15.5321 17.5628C15.2943 17.8321 15.1755 18.1883 15.1755 18.6314H13.2145C13.291 17.7278 13.5839 17.0023 14.0932 16.4549C14.645 15.8553 15.426 15.5555 16.4361 15.5555C17.3444 15.5555 18.0788 15.8292 18.639 16.3767C19.1653 16.9154 19.4285 17.6105 19.4285 18.462C19.4285 19.1311 19.2163 19.7698 18.7919 20.378C18.5372 20.7429 18.083 21.2425 17.4293 21.8768L16.538 22.7501H19.4667Z" fill="#00A1E2"/>
<path d="M27.0894 15.7511V21.2121H28.108V22.8022H27.0894V24.4444H25.2048V22.8022H21.0537V21.6552L24.7974 15.7511H27.0894ZM23.1165 21.2121H25.2048V17.8364L23.1165 21.2121Z" fill="#00A1E2"/>
</svg>
