<svg width="40" height="40" viewBox="0 0 40 40" fill="none" xmlns="http://www.w3.org/2000/svg">
<g clip-path="url(#clip0)">
<path fill-rule="evenodd" clip-rule="evenodd" d="M29.5928 17.5409C28.6987 18.435 28.2859 19.5356 28.2859 20.8423C28.2859 22.218 28.6987 23.3185 29.5928 24.2815C30.4869 25.1756 31.6563 25.6571 33.0319 25.6571C34.4075 25.6571 35.5768 25.1756 36.4709 24.2815C37.3651 23.3185 37.7778 22.218 37.7778 20.8423C37.7778 19.5356 37.3651 18.435 36.4709 17.5409C35.5768 16.6467 34.4075 16.234 33.0319 16.234C31.6563 16.234 30.4869 16.6467 29.5928 17.5409ZM31.2436 22.7682C30.7621 22.2868 30.5557 21.599 30.5557 20.8423C30.5557 20.0858 30.7621 19.4668 31.2436 18.9852C31.725 18.5038 32.344 18.2287 33.0319 18.2287C33.7885 18.2287 34.3387 18.5038 34.8203 18.9852C35.3017 19.4668 35.508 20.0858 35.508 20.8423C35.508 21.599 35.3017 22.2868 34.8203 22.7682C34.3387 23.2497 33.7197 23.5248 33.0319 23.5248C32.2753 23.5248 31.725 23.3185 31.2436 22.7682ZM5.31294 16.3028L2.21777 25.4507H4.55634L5.1066 23.5248H7.92664L8.47688 25.4507H10.7467L7.65151 16.3028H5.31294ZM7.37638 21.8053H5.58806L6.2071 20.017C6.24304 19.8013 6.29777 19.5669 6.36147 19.294L6.36148 19.2939L6.36152 19.2938C6.4197 19.0446 6.48535 18.7632 6.55101 18.435L6.89492 20.017L7.37638 21.8053ZM11.4346 16.3716V22.1492C11.4346 23.1809 11.7785 24.0062 12.4663 24.6941C13.1541 25.3131 14.0483 25.657 15.2176 25.657C16.318 25.657 17.281 25.3131 17.9688 24.6941C18.6566 24.0062 19.0005 23.1809 19.0005 22.1492V16.3716H16.7995V22.1492C16.7995 22.6307 16.6619 22.9746 16.3868 23.2497C16.1117 23.5248 15.699 23.6623 15.2176 23.6623C14.736 23.6623 14.3234 23.5248 14.0483 23.2497C13.7731 22.9746 13.6356 22.6307 13.6356 22.1492V16.3716H11.4346ZM22.8523 25.4507V18.2287H20.101V16.3028H27.8734V18.2287H25.122V25.4507H22.8523Z" fill="#00A1E2"/>
<path d="M5.55566 14.4444L11.1112 0V14.4444H5.55566Z" fill="#00A1E2"/>
<path d="M32.896 28.3432C31.8321 28.3432 30.8866 28.1258 30 27.7778V40L35.5556 27.8648C34.7872 28.1692 33.9007 28.3432 32.896 28.3432Z" fill="#00A1E2"/>
</g>
<defs>
<clipPath id="clip0">
<rect width="40" height="40" fill="white"/>
</clipPath>
</defs>
</svg>
