<svg width="17" height="17" viewBox="0 0 17 17" fill="none" xmlns="http://www.w3.org/2000/svg">
<g clip-path="url(#clip0)">
<path d="M9.43917 8.50078L16.8055 1.13441C17.0649 0.87506 17.0649 0.454576 16.8055 0.19526C16.5462 -0.0640565 16.1257 -0.0640897 15.8664 0.19526L8.49999 7.56163L1.13366 0.19526C0.874311 -0.0640897 0.453828 -0.0640897 0.194512 0.19526C-0.0648041 0.454609 -0.0648373 0.875093 0.194512 1.13441L7.56084 8.50075L0.194512 15.8671C-0.0648373 16.1265 -0.0648373 16.547 0.194512 16.8063C0.32417 16.9359 0.494136 17.0007 0.664103 17.0007C0.834069 17.0007 1.004 16.9359 1.13369 16.8063L8.49999 9.43993L15.8663 16.8063C15.996 16.9359 16.1659 17.0007 16.3359 17.0007C16.5059 17.0007 16.6758 16.9359 16.8055 16.8063C17.0649 16.5469 17.0649 16.1264 16.8055 15.8671L9.43917 8.50078Z" fill="white"/>
</g>
<defs>
<clipPath id="clip0">
<rect width="17" height="17" fill="white"/>
</clipPath>
</defs>
</svg>
