<svg width="47" height="47" viewBox="0 0 47 47" fill="none" xmlns="http://www.w3.org/2000/svg">
<g clip-path="url(#clip0)">
<path d="M2.35 47H6.26667C6.93132 46.9979 7.56368 46.7131 8.00567 46.2167H27.6517C28.8012 46.2172 29.9286 45.9012 30.9103 45.3033L45.59 36.367C46.2842 35.9478 46.773 35.259 46.9395 34.4654C47.106 33.6717 46.9353 32.8446 46.4681 32.1817C46.4515 32.1544 46.4332 32.1283 46.4133 32.1034C45.6555 31.0966 44.3403 30.6848 43.1437 31.0795L37.6 32.9227V16.45H38.6262C39.283 16.4535 39.8723 16.0469 40.1021 15.4317C40.332 14.8164 40.1537 14.123 39.6555 13.695L37.6 11.9208V3.13331C37.6 2.26806 36.8986 1.56664 36.0333 1.56664H32.1167C31.2514 1.56664 30.55 2.26806 30.55 3.13331V5.83424L24.5183 0.626638C23.9311 0.127791 23.0689 0.127791 22.4817 0.626638L7.34219 13.6974C6.84552 14.126 6.66857 14.8188 6.89883 15.4332C7.12908 16.0475 7.71776 16.4533 8.37384 16.45H9.4V27.4167H8.47254C8.14177 26.4811 7.25899 25.8541 6.26667 25.85H2.35C1.05213 25.85 0 26.9021 0 28.2V44.65C0 45.9479 1.05213 47 2.35 47ZM43.6317 32.5624C44.1692 32.3859 44.7599 32.5569 45.12 32.9932C45.1318 33.0127 45.1446 33.0315 45.1584 33.0496C45.3893 33.3566 45.4792 33.7471 45.4059 34.1241C45.3326 34.5012 45.1029 34.8295 44.7738 35.0275L30.0957 43.9654C29.3592 44.4134 28.5137 44.6503 27.6517 44.65H8.61667V28.9833H10.0267C11.472 28.985 12.8741 29.4768 14.0037 30.3785C15.4108 31.501 17.1567 32.1137 18.9567 32.1167H23.0535C24.1459 32.1196 25.1586 32.6885 25.7294 33.6199C25.738 33.6395 25.7474 33.6575 25.7552 33.6716C26.2474 34.3885 26.2253 35.34 25.7004 36.0333H20.9307C19.384 36.0343 17.8721 36.4922 16.5847 37.3493L16.0129 37.7332C15.6538 37.9746 15.5584 38.4614 15.7998 38.8204C16.0412 39.1795 16.528 39.2749 16.8871 39.0335L17.4542 38.6528C18.4839 37.9668 19.6934 37.6005 20.9307 37.6H27.8945C28.3171 37.6006 28.7368 37.5315 29.1369 37.3956L43.6317 32.5624ZM28.9833 35.7983L28.6355 35.9143C28.3967 35.9943 28.1464 36.0346 27.8945 36.0333H27.4676C27.8131 34.9934 27.689 33.8545 27.1276 32.9133C27.1152 32.8864 27.101 32.8602 27.0853 32.835C26.2336 31.4213 24.7055 30.555 23.0551 30.55H18.9567C18.6418 30.5474 18.3276 30.5212 18.0167 30.4717V28.9833C18.0167 25.955 20.4716 23.5 23.5 23.5C26.5284 23.5 28.9833 25.955 28.9833 28.9833V35.7983ZM32.1167 3.13331H36.0333V10.5687L32.1167 7.18706V3.13331ZM12.5333 16.45C12.966 16.45 13.3167 16.0993 13.3167 15.6667C13.3167 15.234 12.966 14.8833 12.5333 14.8833H8.36835L23.5 1.81496L30.785 8.10513L38.6262 14.8833H28.2C27.7674 14.8833 27.4167 15.234 27.4167 15.6667C27.4167 16.0993 27.7674 16.45 28.2 16.45H36.0333V33.4483L30.55 35.2759V28.9833C30.55 25.0897 27.3936 21.9333 23.5 21.9333C19.6064 21.9333 16.45 25.0897 16.45 28.9833V30.0299C15.923 29.8061 15.4289 29.5117 14.9813 29.1549C13.8244 28.2349 12.4343 27.655 10.9667 27.4801V16.45H12.5333ZM1.56667 28.2C1.56667 27.7674 1.91738 27.4167 2.35 27.4167H6.26667C6.69929 27.4167 7.05 27.7674 7.05 28.2V44.65C7.05 45.0826 6.69929 45.4333 6.26667 45.4333H2.35C1.91738 45.4333 1.56667 45.0826 1.56667 44.65V28.2Z" fill="#00A1E2"/>
<path d="M9.39997 3.91666C9.8326 3.91666 10.1833 3.56595 10.1833 3.13333V1.56666C10.1833 1.13404 9.8326 0.783325 9.39997 0.783325C8.96735 0.783325 8.61664 1.13404 8.61664 1.56666V3.13333C8.61664 3.56595 8.96735 3.91666 9.39997 3.91666Z" fill="#00A1E2"/>
<path d="M9.39997 5.48328C8.96735 5.48328 8.61664 5.83399 8.61664 6.26661V7.83328C8.61664 8.26591 8.96735 8.61662 9.39997 8.61662C9.8326 8.61662 10.1833 8.26591 10.1833 7.83328V6.26661C10.1833 5.83399 9.8326 5.48328 9.39997 5.48328Z" fill="#00A1E2"/>
<path d="M10.9667 5.4833H12.5334C12.966 5.4833 13.3167 5.13258 13.3167 4.69996C13.3167 4.26734 12.966 3.91663 12.5334 3.91663H10.9667C10.5341 3.91663 10.1833 4.26734 10.1833 4.69996C10.1833 5.13258 10.5341 5.4833 10.9667 5.4833Z" fill="#00A1E2"/>
<path d="M6.26667 5.4833H7.83334C8.26596 5.4833 8.61668 5.13258 8.61668 4.69996C8.61668 4.26734 8.26596 3.91663 7.83334 3.91663H6.26667C5.83405 3.91663 5.48334 4.26734 5.48334 4.69996C5.48334 5.13258 5.83405 5.4833 6.26667 5.4833Z" fill="#00A1E2"/>
<path d="M43.475 23.1083C43.6827 23.1082 43.8819 23.0257 44.0288 22.8788L45.2038 21.7037C45.5006 21.3964 45.4964 20.9078 45.1942 20.6057C44.8921 20.3035 44.4035 20.2992 44.0961 20.5961L42.9211 21.7711C42.6972 21.9951 42.6302 22.332 42.7514 22.6247C42.8726 22.9173 43.1582 23.1082 43.475 23.1083Z" fill="#00A1E2"/>
<path d="M40.5713 24.1211L39.3963 25.2961C39.1926 25.4928 39.111 25.7841 39.1827 26.0579C39.2543 26.3318 39.4682 26.5457 39.7421 26.6174C40.016 26.6891 40.3072 26.6074 40.5039 26.4038L41.6789 25.2288C41.9758 24.9214 41.9715 24.4328 41.6693 24.1307C41.3672 23.8285 40.8786 23.8243 40.5713 24.1211Z" fill="#00A1E2"/>
<path d="M44.0962 26.4038C44.4035 26.7006 44.8921 26.6964 45.1943 26.3942C45.4964 26.0921 45.5007 25.6035 45.2038 25.2961L44.0288 24.1211C43.7215 23.8243 43.2329 23.8285 42.9307 24.1307C42.6286 24.4328 42.6243 24.9214 42.9212 25.2288L44.0962 26.4038Z" fill="#00A1E2"/>
<path d="M39.3962 20.5961C39.0904 20.902 39.0904 21.3979 39.3962 21.7037L40.5712 22.8787C40.8786 23.1756 41.3671 23.1714 41.6693 22.8692C41.9715 22.567 41.9757 22.0785 41.6788 21.7711L40.5038 20.5961C40.198 20.2903 39.7021 20.2903 39.3962 20.5961Z" fill="#00A1E2"/>
<path d="M15.6666 16.45C17.8287 16.4525 19.5807 18.2046 19.5833 20.3666C19.5833 20.7992 19.934 21.15 20.3666 21.15C20.7993 21.15 21.15 20.7992 21.15 20.3666C21.1526 18.2046 22.9046 16.4525 25.0666 16.45C25.4993 16.45 25.85 16.0992 25.85 15.6666C25.85 15.234 25.4993 14.8833 25.0666 14.8833C22.9046 14.8807 21.1526 13.1287 21.15 10.9666C21.15 10.534 20.7993 10.1833 20.3666 10.1833C19.934 10.1833 19.5833 10.534 19.5833 10.9666C19.5807 13.1287 17.8287 14.8807 15.6666 14.8833C15.234 14.8833 14.8833 15.234 14.8833 15.6666C14.8833 16.0992 15.234 16.45 15.6666 16.45ZM20.3666 13.7866C20.8312 14.5567 21.4765 15.202 22.2466 15.6666C21.4765 16.1312 20.8312 16.7765 20.3666 17.5466C19.902 16.7765 19.2567 16.1312 18.4866 15.6666C19.2567 15.202 19.902 14.5567 20.3666 13.7866Z" fill="#00A1E2"/>
</g>
<defs>
<clipPath id="clip0">
<rect width="47" height="47" fill="white"/>
</clipPath>
</defs>
</svg>
