<svg width="50" height="50" viewBox="0 0 50 50" fill="none" xmlns="http://www.w3.org/2000/svg">
<path d="M35.7666 23.4737C33.6396 23.4737 31.9149 21.7493 31.9149 19.622C31.9149 17.4949 33.6396 15.7703 35.7666 15.7703C37.894 15.7703 39.6183 17.4949 39.6183 19.622C39.6159 21.7484 37.893 23.4712 35.7666 23.4737ZM35.7666 17.3111C34.4904 17.3111 33.4557 18.3458 33.4557 19.622C33.4557 20.8987 34.4904 21.9329 35.7666 21.9329C37.0434 21.9329 38.0775 20.8987 38.0775 19.622C38.0775 18.3458 37.0434 17.3111 35.7666 17.3111Z" fill="#00A1E2"/>
<path d="M14.1976 23.4737C12.0705 23.4737 10.3459 21.7493 10.3459 19.622C10.3459 17.4949 12.0705 15.7703 14.1976 15.7703C16.3249 15.7703 18.0492 17.4949 18.0492 19.622C18.0468 21.7484 16.324 23.4712 14.1976 23.4737ZM14.1976 17.3111C12.9214 17.3111 11.8867 18.3458 11.8867 19.622C11.8867 20.8987 12.9214 21.9329 14.1976 21.9329C15.4743 21.9329 16.5084 20.8987 16.5084 19.622C16.5084 18.3458 15.4743 17.3111 14.1976 17.3111Z" fill="#00A1E2"/>
<path d="M40.3887 28.4363L47.7322 21.7607C48.5912 20.9611 48.6515 19.6201 47.8673 18.7469C47.083 17.8738 45.7435 17.7897 44.8568 18.5583L39.3256 23.4736H31.5502L25.7523 30.5606V11.1484H33.4557V14.2297H46.1483L44.2998 9.60764L46.1483 4.98584H37.3074V1.90454H24.2118V30.5606L18.4145 23.4736H10.6391L5.10795 18.5574C4.22061 17.7873 2.87964 17.8707 2.09477 18.7445C1.3093 19.6186 1.36988 20.9605 2.23101 21.7607L9.57573 28.4363V46.5832H1.87233V48.124H48.0918V46.5832H40.3887V28.4363ZM37.3074 6.52634H43.8727L42.6405 9.60764L43.8727 12.6889H34.9962V11.1484H37.3074V6.52634ZM25.7523 3.44504H35.7666V9.60764H25.7523V3.44504ZM17.2788 46.5832H14.9679V35.7988H13.4271V46.5832H11.1162V27.7551L3.26815 20.6235C3.04722 20.4179 3.00804 20.0825 3.17502 19.8308C3.27268 19.6843 3.42881 19.5873 3.60332 19.5647C3.77784 19.5418 3.95386 19.5957 4.08557 19.7124L10.0535 25.0141H17.6842L23.4122 32.0152C23.6343 32.2805 23.5994 32.6753 23.3344 32.8978C23.0689 33.1196 22.6737 33.0846 22.4519 32.8194L17.2788 26.7861V46.5832ZM31.1448 46.5832H18.8196V30.9458L21.2848 33.8192C21.9995 34.6517 23.2229 34.8189 24.1347 34.2089C24.1633 34.1896 24.188 34.1652 24.216 34.1441V40.4206H25.7565V34.1456C25.7855 34.1676 25.8111 34.1935 25.8418 34.2137C26.753 34.8195 27.9728 34.6517 28.6859 33.8216L31.1448 30.9458V46.5832ZM38.8479 46.5832H36.537V35.7988H34.9962V46.5832H32.6853V26.7861L27.5128 32.8218C27.3058 33.0617 26.9519 33.109 26.6894 32.9318C26.5423 32.8351 26.4434 32.6798 26.4181 32.5056C26.3916 32.3311 26.4401 32.1536 26.5523 32.0173L32.2802 25.0141H39.9113L45.878 19.7099C46.0088 19.5915 46.1857 19.5369 46.3602 19.5613C46.5374 19.5836 46.6954 19.6828 46.7924 19.8326C46.9582 20.0831 46.9175 20.417 46.696 20.6205L38.8479 27.7551V46.5832Z" fill="#00A1E2"/>
</svg>
