<svg width="47" height="47" viewBox="0 0 47 47" fill="none" xmlns="http://www.w3.org/2000/svg">
<g clip-path="url(#clip0)">
<path d="M43.7997 39.5945C43.7251 39.4822 43.6225 39.3913 43.502 39.3308L41.8792 38.5198C41.8459 38.3982 41.7827 38.2867 41.6954 38.1957L28.0779 24.5782L30.0574 22.601C31.767 20.8899 33.7419 19.4663 35.9058 18.3855L36.7176 17.9768C37.0432 18.0157 37.3706 18.0362 37.6985 18.0381C39.9491 18.0405 42.1074 17.143 43.6927 15.5453L44.6138 14.6242C46.9195 12.3169 47.4906 8.79346 46.032 5.87591C45.8404 5.49298 45.3746 5.33791 44.9916 5.52952C44.9177 5.56654 44.85 5.61519 44.7914 5.67354L40.9534 9.51154C40.0461 10.421 38.5734 10.423 37.6639 9.5157C37.2265 9.07947 36.9806 8.4871 36.9805 7.86934C36.9792 7.25225 37.2246 6.66017 37.662 6.22481L41.5 2.38682C41.8025 2.08375 41.802 1.59276 41.4989 1.29027C41.4404 1.23193 41.373 1.18327 41.2992 1.14625C38.3839 -0.318391 34.8581 0.251396 32.5524 2.55972L31.6313 3.48084C30.027 5.0769 29.128 7.24857 29.1347 9.51154C29.1363 9.82701 29.1568 10.1421 29.1959 10.4551L28.7935 11.2662C27.7109 13.4302 26.2856 15.4049 24.5725 17.1139L22.593 19.0934L21.4067 17.9078L23.5994 15.7128C23.9016 15.4101 23.9016 14.9199 23.5994 14.6172L22.5372 13.555C22.3945 13.4122 22.2018 13.3307 21.9999 13.3278L20.3538 13.3053L20.084 12.3431C20.0475 12.2152 19.9792 12.0987 19.8855 12.0043L9.47405 1.58898C7.35287 -0.530741 3.91505 -0.529481 1.79533 1.59169C-0.324386 3.71286 -0.323126 7.15068 1.79805 9.2704L12.1645 19.6369C12.2559 19.7281 12.3686 19.7949 12.4925 19.8315L13.5229 20.1378L13.5811 21.8435C13.588 22.04 13.6691 22.2265 13.8083 22.3653L14.8317 23.3888C15.1345 23.6915 15.6253 23.6915 15.9281 23.3888L18.1161 21.1992L19.3001 22.3832L16.9392 24.7433C15.2329 26.4578 13.2579 27.8817 11.0922 28.9589L10.2874 29.3683C9.97357 29.3288 9.65771 29.308 9.34146 29.3063C7.0783 29.2994 4.90654 30.1982 3.30999 31.8022L2.38887 32.7233C0.0787979 35.0274 -0.492347 38.5537 0.972296 41.4693C1.16449 41.8519 1.63047 42.0063 2.01321 41.8141C2.08706 41.777 2.15442 41.7284 2.21286 41.6701L6.05086 37.8329C6.95173 36.917 8.42441 36.9049 9.3403 37.8057C10.2562 38.7066 10.2683 40.1793 9.36744 41.0952C9.35862 41.1042 9.3497 41.1131 9.34069 41.1219L5.50269 44.9599C5.20049 45.2633 5.20146 45.7543 5.50482 46.0564C5.56346 46.1148 5.63101 46.1635 5.70505 46.2005C8.62135 47.6577 12.1428 47.0869 14.4495 44.7831L15.3706 43.862C17.208 42.0365 18.104 39.4677 17.8006 36.8955L18.2154 36.072C19.2939 33.9086 20.7163 31.9346 22.4271 30.2266L24.7865 27.8672L38.0071 41.0847C37.9978 41.2164 38.0226 41.3484 38.0792 41.4677L39.1701 43.6612C39.2306 43.7817 39.3215 43.8843 39.4337 43.9589L42.7235 46.1524C43.031 46.3571 43.4401 46.3165 43.7013 46.0555L45.8947 43.862C46.1562 43.6012 46.1974 43.192 45.9932 42.8843L43.7997 39.5945ZM32.7277 4.57719L33.6488 3.65607C35.1957 2.10643 37.4624 1.51929 39.5671 2.1232L36.5657 5.12536C35.0451 6.63265 35.0343 9.08732 36.5416 10.6079C38.0489 12.1285 40.5036 12.1393 42.0242 10.6319C42.0322 10.624 42.0403 10.6159 42.0482 10.6079L45.0488 7.60727C45.6489 9.71148 45.0631 11.9758 43.5175 13.5248L42.5964 14.4459C41.0497 16.0041 38.8546 16.7344 36.6828 16.4137H36.6657C36.3053 16.3623 35.9493 16.283 35.6011 16.1765L35.5538 16.1617C35.2152 16.0552 34.8853 15.923 34.5668 15.7663L34.5203 15.743C34.1959 15.5806 33.8848 15.3929 33.5899 15.1817C33.2848 14.9612 32.9978 14.7167 32.7316 14.4505C31.6591 13.382 30.9675 11.9907 30.7629 10.4908C30.714 10.1683 30.6894 9.84242 30.6893 9.51619C30.6814 7.66358 31.4155 5.88492 32.7277 4.57719ZM25.6681 18.211C27.2893 16.5952 28.6698 14.7549 29.7674 12.7463C29.8015 12.83 29.8449 12.9091 29.8821 12.9913C29.9418 13.127 30.0023 13.2627 30.0698 13.3945C30.1264 13.5046 30.1876 13.6124 30.2489 13.7202C30.3101 13.8279 30.3791 13.9466 30.4497 14.0574C30.5202 14.1683 30.5877 14.2722 30.6614 14.3777C30.735 14.4831 30.8164 14.5862 30.894 14.6878C30.9715 14.7894 31.049 14.8925 31.132 14.9917C31.215 15.091 31.3235 15.2057 31.422 15.3112C31.4933 15.3887 31.5577 15.4662 31.6321 15.5438C31.691 15.6019 31.7546 15.6523 31.8143 15.7082C31.943 15.8291 32.0717 15.9493 32.2066 16.0617C32.2764 16.1199 32.3493 16.1734 32.4206 16.23C32.5618 16.3401 32.7044 16.4463 32.8517 16.5471C32.9207 16.5944 32.9913 16.6409 33.0619 16.6859C33.2231 16.7893 33.388 16.8872 33.5565 16.9797C33.6162 17.0123 33.6752 17.0464 33.7356 17.0782C33.9574 17.193 34.183 17.3 34.4148 17.3946L34.4366 17.4046C32.4259 18.5019 30.5828 19.8816 28.9633 21.5016L26.9815 23.4819L24.2197 20.7208L23.6894 20.1897L25.6681 18.211ZM15.3822 21.7482L15.1233 21.4892L15.0566 19.5275C15.0454 19.1941 14.8221 18.9052 14.5022 18.8103L13.1244 18.401L2.89827 8.17948C1.38285 6.66512 1.38197 4.2089 2.89634 2.69347C4.4107 1.17804 6.86692 1.17717 8.38235 2.69153L18.6449 12.9572L19.0163 14.2823C19.1094 14.6129 19.4088 14.8429 19.7521 14.8475L21.6626 14.8739L21.9549 15.1662L15.3822 21.7482ZM14.275 42.7672L13.3508 43.6907C11.8024 45.2367 9.53792 45.8225 7.43409 45.2212L10.4347 42.2206C11.9302 40.6883 11.9003 38.2339 10.368 36.7384C8.86307 35.2697 6.46161 35.2685 4.95529 36.7357L1.95312 39.7364C1.34805 37.6318 1.9349 35.3647 3.48522 33.8181L4.40634 32.897C7.135 30.1803 11.5464 30.1803 14.275 32.897C15.3405 33.9681 16.0306 35.3553 16.2421 36.8513V36.8559C16.5639 39.027 15.8335 41.2217 14.275 42.7672ZM21.3308 29.1318C19.7103 30.7496 18.3305 32.5919 17.2338 34.602C17.2229 34.5741 17.2082 34.5485 17.1966 34.5244C17.1113 34.3202 17.0182 34.1202 16.9174 33.9243C16.8748 33.8421 16.8291 33.7623 16.7833 33.6808C16.7058 33.539 16.622 33.3986 16.5344 33.2614C16.4763 33.1699 16.4173 33.0807 16.3561 32.9916C16.27 32.8675 16.1793 32.7465 16.0863 32.6271C16.0188 32.5387 15.9521 32.4496 15.88 32.3635C15.7699 32.2325 15.6521 32.1061 15.5334 31.9805C15.4776 31.9223 15.4288 31.8595 15.3714 31.8022C15.314 31.7448 15.2435 31.6882 15.1807 31.6293C15.0605 31.5161 14.9403 31.4029 14.8147 31.2974C14.7224 31.2199 14.6263 31.1485 14.5309 31.0749C14.4208 30.9904 14.3099 30.9066 14.1967 30.8275C14.0967 30.7585 13.9959 30.6919 13.8928 30.6267C13.7749 30.5492 13.6548 30.4817 13.5338 30.4135C13.4322 30.3561 13.3314 30.298 13.2275 30.2453C13.0841 30.1716 12.9368 30.1057 12.7887 30.0406C12.715 30.008 12.6445 29.9692 12.57 29.9382C14.5813 28.8447 16.4233 27.4651 18.0386 25.8428L20.398 23.4834L23.6902 26.7756L21.3308 29.1318ZM38.9522 39.841L19.2156 20.1044L20.3135 19.0065L40.0501 38.7431L38.9522 39.841ZM43.0562 44.5094L40.4673 42.7835L39.7128 41.2747L41.1155 39.872L42.6243 40.6265L44.3502 43.2154L43.0562 44.5094Z" fill="#00A1E2"/>
</g>
<defs>
<clipPath id="clip0">
<rect width="47" height="47" fill="white"/>
</clipPath>
</defs>
</svg>
