<svg width="50" height="50" viewBox="0 0 50 50" fill="none" xmlns="http://www.w3.org/2000/svg">
<g clip-path="url(#clip0)">
<path d="M48.3028 23.0968L44.8981 21.6232L42.0069 15.9971C41.2254 14.4566 39.6403 13.4966 37.91 13.5077H32.9313V12.1012C32.9313 9.556 30.8996 7.47968 28.3545 7.47968H4.55488C2.0097 7.47968 0.00035806 9.56716 0.00035806 12.1012V33.6458C-0.021968 35.1975 1.21713 36.4701 2.76879 36.4924C2.77995 36.4924 2.79112 36.4924 2.81344 36.4924H3.40508C3.40508 36.604 3.39392 36.6487 3.39392 36.7157C3.38276 39.9083 5.96142 42.5093 9.15405 42.5204C12.3467 42.5316 14.9477 39.9529 14.9588 36.7603C14.9588 36.738 14.9588 36.7268 14.9588 36.7045C14.9588 36.6264 14.9588 36.5929 14.9477 36.4812H34.1816C34.1816 36.5929 34.1816 36.6375 34.1816 36.7045C34.1704 39.8971 36.7491 42.4981 39.9417 42.5093C43.1343 42.5204 45.7353 39.9418 45.7465 36.7492C45.7465 36.7268 45.7465 36.7157 45.7465 36.6933C45.7465 36.6152 45.7465 36.5817 45.7465 36.4701H47.1865C48.7382 36.4701 49.9996 35.2087 49.9996 33.657C49.9996 33.6458 49.9996 33.6347 49.9996 33.6123V25.6866C50.0219 24.5926 49.3521 23.5544 48.3028 23.0968ZM9.18753 40.299C7.22284 40.299 5.63769 38.7138 5.63769 36.7492C5.63769 34.7845 7.22284 33.1993 9.18753 33.1993C11.1522 33.1993 12.7374 34.7845 12.7374 36.7492C12.7374 38.7027 11.1411 40.299 9.18753 40.299ZM30.6987 34.2821H14.423C13.4853 32.2393 11.4313 30.9332 9.18753 30.9444C6.9326 30.9332 4.88977 32.2281 3.95207 34.2821H2.81344C2.46739 34.2821 2.23296 34.0142 2.23296 33.6682V27.9192H30.6987V34.2821ZM30.6987 12.1123V25.6866H2.23296V12.1123C2.23296 10.8063 3.2488 9.72344 4.55488 9.72344H28.3545C29.6605 9.73461 30.7099 10.8063 30.6987 12.1012V12.1123ZM32.9313 15.7515H37.91C38.7919 15.7403 39.618 16.2203 40.031 17.0129L42.2636 21.333H32.9313V15.7515ZM39.9752 40.299C38.0105 40.299 36.4253 38.7138 36.4253 36.7492C36.4253 34.7845 38.0105 33.1993 39.9752 33.1993C41.9399 33.1993 43.525 34.7845 43.525 36.7492C43.525 38.7027 41.9399 40.299 39.9752 40.299ZM47.7781 33.6682C47.7781 34.0142 47.5437 34.2821 47.1977 34.2821H45.2106C43.8599 31.3909 40.4217 30.1406 37.5305 31.4914C36.3025 32.0607 35.309 33.0542 34.7397 34.2821H32.9313V23.5656H43.8711L47.4209 25.1284C47.6442 25.2401 47.7893 25.4856 47.7781 25.7312V33.6682Z" fill="#00A1E2"/>
</g>
<defs>
<clipPath id="clip0">
<rect width="50" height="50" fill="white"/>
</clipPath>
</defs>
</svg>
