<svg width="36" height="36" viewBox="0 0 36 36" fill="none" xmlns="http://www.w3.org/2000/svg">
<path fill-rule="evenodd" clip-rule="evenodd" d="M20.8795 20.7545L22.2795 23.9745H24.4795L18.1595 9.85449L11.5195 23.9745H13.7195L15.1795 20.7545H20.8795ZM20.0595 18.8345H16.0195L18.0795 14.3145L20.0595 18.8345Z" fill="#00A1E2"/>
<path fill-rule="evenodd" clip-rule="evenodd" d="M18 3C16.0302 3 14.0796 3.38799 12.2598 4.14181C10.4399 4.89563 8.78628 6.00052 7.3934 7.3934C6.00052 8.78628 4.89563 10.4399 4.14181 12.2597C3.38799 14.0796 3 16.0302 3 18C3 19.9698 3.38799 21.9204 4.14181 23.7402C4.89563 25.5601 6.00052 27.2137 7.3934 28.6066C8.78628 29.9995 10.4399 31.1044 12.2597 31.8582C14.0796 32.612 16.0302 33 18 33C19.9698 33 21.9204 32.612 23.7403 31.8582C25.5601 31.1044 27.2137 29.9995 28.6066 28.6066C29.9995 27.2137 31.1044 25.5601 31.8582 23.7403C32.612 21.9204 33 19.9698 33 18C33 16.0302 32.612 14.0796 31.8582 12.2598C31.1044 10.4399 29.9995 8.78628 28.6066 7.3934C27.2137 6.00052 25.5601 4.89563 23.7403 4.14181C21.9204 3.38799 19.9698 3 18 3ZM13.0251 5.98957C14.6023 5.33625 16.2928 5 18 5C19.7072 5 21.3977 5.33626 22.9749 5.98957C24.5521 6.64288 25.9852 7.60045 27.1924 8.80761C28.3996 10.0148 29.3571 11.4479 30.0104 13.0251C30.6637 14.6024 31 16.2928 31 18C31 19.7072 30.6637 21.3977 30.0104 22.9749C29.3571 24.5521 28.3995 25.9852 27.1924 27.1924C25.9852 28.3995 24.5521 29.3571 22.9749 30.0104C21.3977 30.6637 19.7072 31 18 31C16.2928 31 14.6023 30.6637 13.0251 30.0104C11.4479 29.3571 10.0148 28.3995 8.80761 27.1924C7.60045 25.9852 6.64288 24.5521 5.98957 22.9749C5.33625 21.3977 5 19.7072 5 18C5 16.2928 5.33626 14.6023 5.98957 13.0251C6.64288 11.4479 7.60045 10.0148 8.80761 8.80761C10.0148 7.60045 11.4479 6.64288 13.0251 5.98957Z" fill="#00A1E2"/>
</svg>
