<svg width="36" height="36" viewBox="0 0 36 36" fill="none" xmlns="http://www.w3.org/2000/svg">
<path d="M31.1569 30.8897L5.11061 4.84328C4.68318 4.41586 4.68318 3.748 5.11061 3.32057C5.53803 2.89314 6.20589 2.89314 6.63332 3.32057L32.6796 29.3669C33.1071 29.7944 33.1071 30.4622 32.6796 30.8897C32.2522 31.2904 31.5844 31.2904 31.1569 30.8897Z" fill="#00A1E2"/>
<path d="M21.9135 12.9643C23.7578 12.9643 25.2528 11.4693 25.2528 9.62504C25.2528 7.78081 23.7578 6.28577 21.9135 6.28577C20.0693 6.28577 18.5742 7.78081 18.5742 9.62504C18.5742 11.4693 20.0693 12.9643 21.9135 12.9643Z" fill="#00A1E2"/>
<path fill-rule="evenodd" clip-rule="evenodd" d="M9.59887 15.3153C8.61035 15.3153 7.80901 16.1166 7.80901 17.1052C7.80901 18.0937 8.61035 18.895 9.59887 18.895C10.5873 18.895 11.3887 18.0937 11.3887 17.1052C11.3887 16.1166 10.5873 15.3153 9.59887 15.3153ZM5.67188 17.1052C5.67188 14.9363 7.43005 13.1782 9.59887 13.1782C11.7677 13.1782 13.5258 14.9363 13.5258 17.1052C13.5258 19.274 11.7677 21.0321 9.59887 21.0321C7.43005 21.0321 5.67188 19.274 5.67188 17.1052Z" fill="#00A1E2"/>
<path fill-rule="evenodd" clip-rule="evenodd" d="M4.81677 24.9325C4.40367 24.9325 4.06878 25.2674 4.06878 25.6805C4.06878 26.0936 4.40367 26.4285 4.81677 26.4285C5.22988 26.4285 5.56477 26.0936 5.56477 25.6805C5.56477 25.2674 5.22988 24.9325 4.81677 24.9325ZM1.93164 25.6805C1.93164 24.0871 3.22336 22.7953 4.81677 22.7953C6.41019 22.7953 7.70191 24.0871 7.70191 25.6805C7.70191 27.2739 6.41019 28.5656 4.81677 28.5656C3.22336 28.5656 1.93164 27.2739 1.93164 25.6805Z" fill="#00A1E2"/>
<path fill-rule="evenodd" clip-rule="evenodd" d="M16.277 25.6002C15.0229 25.6002 14.0063 26.6168 14.0063 27.8709C14.0063 29.125 15.0229 30.1416 16.277 30.1416C17.5311 30.1416 18.5477 29.125 18.5477 27.8709C18.5477 26.6168 17.5311 25.6002 16.277 25.6002ZM11.8691 27.8709C11.8691 25.4365 13.8426 23.4631 16.277 23.4631C18.7114 23.4631 20.6848 25.4365 20.6848 27.8709C20.6848 30.3053 18.7114 32.2788 16.277 32.2788C13.8426 32.2788 11.8691 30.3053 11.8691 27.8709Z" fill="#00A1E2"/>
<path d="M29.5269 14.3803C30.5449 14.3803 31.3702 13.555 31.3702 12.537C31.3702 11.519 30.5449 10.6937 29.5269 10.6937C28.5089 10.6937 27.6836 11.519 27.6836 12.537C27.6836 13.555 28.5089 14.3803 29.5269 14.3803Z" fill="#00A1E2"/>
<path d="M14.2196 11.9759C14.2998 11.9225 14.3799 11.8424 14.4334 11.7889C15.4218 10.8005 15.4218 9.22438 14.4334 8.23595C13.4449 7.24752 11.8688 7.24752 10.8804 8.23595C10.8002 8.31609 10.7468 8.36952 10.6934 8.44966L14.2196 11.9759Z" fill="#00A1E2"/>
<path d="M26.5347 24.7454C26.6148 24.6653 26.695 24.6118 26.7751 24.5317C28.5115 22.7953 28.5115 19.9635 26.7751 18.2271C25.0387 16.4907 22.207 16.4907 20.4705 18.2271C20.3904 18.3073 20.3103 18.3874 20.2568 18.4676L26.5347 24.7454Z" fill="#00A1E2"/>
</svg>
