<svg width="36" height="36" viewBox="0 0 36 36" fill="none" xmlns="http://www.w3.org/2000/svg">
<path fill-rule="evenodd" clip-rule="evenodd" d="M2 14V23H34V14H2ZM1 12H35C35.5523 12 36 12.4477 36 13V24C36 24.5523 35.5523 25 35 25H1C0.447715 25 0 24.5523 0 24V13C0 12.4477 0.447715 12 1 12Z" fill="#00A1E2"/>
<path d="M31 21C31.5523 21 32 20.5523 32 20C32 19.4477 31.5523 19 31 19C30.4477 19 30 19.4477 30 20C30 20.5523 30.4477 21 31 21Z" fill="#00A1E2"/>
<path d="M27 21C27.5523 21 28 20.5523 28 20C28 19.4477 27.5523 19 27 19C26.4477 19 26 19.4477 26 20C26 20.5523 26.4477 21 27 21Z" fill="#00A1E2"/>
<path d="M12 28H8V33H12V28Z" fill="#00A1E2"/>
<path d="M13 33H7L10 36L13 33Z" fill="#00A1E2"/>
<path d="M8 9H10V3H8V9Z" fill="#00A1E2"/>
<path d="M7 3H11L9 0L7 3Z" fill="#00A1E2"/>
<path d="M14 9H16V3H14V9Z" fill="#00A1E2"/>
<path d="M13 3H17L15 0L13 3Z" fill="#00A1E2"/>
<path d="M20 9H22V3H20V9Z" fill="#00A1E2"/>
<path d="M19 3H23L21 0L19 3Z" fill="#00A1E2"/>
<path d="M26 9H28V3H26V9Z" fill="#00A1E2"/>
<path d="M25 3H29L27 0L25 3Z" fill="#00A1E2"/>
<path d="M20 28H16V33H20V28Z" fill="#00A1E2"/>
<path d="M21 33H15L18 36L21 33Z" fill="#00A1E2"/>
<path d="M28 28H24V33H28V28Z" fill="#00A1E2"/>
<path d="M29 33H23L26 36L29 33Z" fill="#00A1E2"/>
</svg>
