<svg width="36" height="36" viewBox="0 0 36 36" fill="none" xmlns="http://www.w3.org/2000/svg">
<path fill-rule="evenodd" clip-rule="evenodd" d="M18.0203 3L18.6346 3.43866C19.899 4.34157 21.1838 5.17788 22.5228 5.99314C24.2027 7.016 25.8968 7.75446 27.176 8.23773C27.8139 8.47874 28.3445 8.65474 28.7131 8.76981C28.8973 8.82732 29.0408 8.86952 29.1367 8.89693C29.1846 8.91064 29.2206 8.92064 29.2438 8.927L29.269 8.93383L29.2741 8.93521L30.0158 9.13032L30.0198 9.89712C30.0215 10.2097 30.0237 10.5222 30.026 10.8345C30.0526 14.5002 30.079 18.1358 29.0741 21.5359C27.817 25.7893 24.96 29.6741 18.4486 32.7872L18.0172 32.9934L17.5859 32.7872C11.0744 29.6741 8.21724 25.7893 6.96025 21.5359C5.95576 18.1369 5.98201 14.5028 6.00846 10.8393C6.01067 10.5332 6.01288 10.2268 6.0145 9.92045L6.01912 9.04168L6.8912 8.93334C8.91242 8.68225 10.8865 7.78035 12.7806 6.66864C14.4028 5.71644 15.9576 4.64454 17.43 3.47057L18.0203 3ZM28.0244 10.6498C27.6308 10.5253 27.0976 10.3461 26.4691 10.1087C25.1139 9.59665 23.2995 8.80758 21.4827 7.70141C20.3233 6.99548 19.1969 6.27013 18.085 5.49776C16.7167 6.54962 15.2827 7.51905 13.793 8.39347C12.0517 9.41551 10.1004 10.359 8.00923 10.7766C8.0092 10.7803 8.00918 10.7839 8.00916 10.7875C7.98419 14.5267 7.96188 17.8683 8.87825 20.9691C9.9313 24.5324 12.2738 27.9193 18.0172 30.7726C23.7605 27.9193 26.103 24.5324 27.1561 20.969C28.0728 17.8674 28.0504 14.5253 28.0253 10.7852C28.025 10.7401 28.0247 10.695 28.0244 10.6498Z" fill="#00A1E2"/>
<path fill-rule="evenodd" clip-rule="evenodd" d="M16.2257 10.0454C16.6162 10.4359 16.6162 11.0691 16.2257 11.4596L11.7257 15.9596C11.3352 16.3501 10.702 16.3501 10.3115 15.9596C9.92092 15.5691 9.92092 14.9359 10.3115 14.5454L14.8115 10.0454C15.202 9.65487 15.8352 9.65487 16.2257 10.0454Z" fill="#00A1E2"/>
<path fill-rule="evenodd" clip-rule="evenodd" d="M16.2256 14.5454C16.6161 14.9359 16.6161 15.5691 16.2256 15.9596L12.7256 19.4596C12.3351 19.8501 11.7019 19.8501 11.3114 19.4596C10.9209 19.0691 10.9209 18.4359 11.3114 18.0454L14.8114 14.5454C15.2019 14.1549 15.8351 14.1549 16.2256 14.5454Z" fill="#00A1E2"/>
<path fill-rule="evenodd" clip-rule="evenodd" d="M24.2256 14.5454C24.6161 14.9359 24.6161 15.5691 24.2256 15.9596L20.7256 19.4596C20.3351 19.8501 19.7019 19.8501 19.3114 19.4596C18.9209 19.0691 18.9209 18.4359 19.3114 18.0454L22.8114 14.5454C23.2019 14.1549 23.8351 14.1549 24.2256 14.5454Z" fill="#00A1E2"/>
<path fill-rule="evenodd" clip-rule="evenodd" d="M25.2256 18.0454C25.6161 18.4359 25.6161 19.0691 25.2256 19.4596L20.7256 23.9596C20.3351 24.3501 19.7019 24.3501 19.3114 23.9596C18.9209 23.5691 18.9209 22.9359 19.3114 22.5454L23.8114 18.0454C24.2019 17.6549 24.8351 17.6549 25.2256 18.0454Z" fill="#00A1E2"/>
</svg>
