<svg width="18" height="18" viewBox="0 0 18 18" fill="none" xmlns="http://www.w3.org/2000/svg">
<path d="M10.5221 8.98242H7.47827C4.48506 8.98242 2.04944 11.4177 2.04944 14.4113V18H15.9509V14.4113C15.9509 11.4177 13.5153 8.98242 10.5221 8.98242ZM3.10413 16.9453V14.4113C3.10413 11.9992 5.06655 10.0371 7.47827 10.0371H10.5221C12.9338 10.0371 14.8962 11.9992 14.8962 14.4113V16.9453H3.10413Z" fill="#A3A3A3"/>
<path d="M9.00001 0C6.68532 0 4.802 1.88332 4.802 4.19801C4.802 6.5127 6.68532 8.39602 9.00001 8.39602C11.3147 8.39602 13.198 6.5127 13.198 4.19801C13.198 1.88332 11.3147 0 9.00001 0ZM9.00001 7.34133C7.26681 7.34133 5.85669 5.93121 5.85669 4.19801C5.85669 2.4648 7.26681 1.05469 9.00001 1.05469C10.7332 1.05469 12.1433 2.4648 12.1433 4.19801C12.1433 5.93121 10.7332 7.34133 9.00001 7.34133Z" fill="#A3A3A3"/>
</svg>
