<svg width="18" height="18" viewBox="0 0 18 18" fill="none" xmlns="http://www.w3.org/2000/svg">
<path d="M17.174 2.42188L14.7521 0L9.92651 4.82551L12.2792 7.17817C11.6401 8.1366 10.8718 9.06662 9.99105 9.94735C9.09313 10.8453 8.14563 11.6253 7.16955 12.2705L4.82555 9.92651L0 14.752L2.47809 17.2301L2.49318 17.2446C3.50729 18.1817 5.21919 18.249 7.31352 17.4342C9.27791 16.67 11.4055 15.2034 13.3045 13.3045C15.2261 11.3828 16.7012 9.23305 17.4581 7.25108C17.82 6.30376 18 5.43751 18 4.68032C18 3.74221 17.7236 2.97148 17.174 2.42188ZM11.4273 4.82551L14.7521 1.50082L15.7853 2.5341L12.4606 5.85879L11.4273 4.82551ZM1.50082 14.752L4.82555 11.4273L5.85879 12.4606L2.5341 15.7853L1.50082 14.752ZM16.4668 6.87245C15.762 8.71794 14.3724 10.7357 12.5541 12.554C10.7569 14.3513 8.75911 15.7332 6.9288 16.4452C5.31696 17.0723 4.00008 17.1013 3.28957 16.5306L6.60923 13.211L7.01951 13.6213L7.37729 13.3982C8.54666 12.6693 9.67855 11.7607 10.7415 10.6978C11.7864 9.65289 12.6832 8.53963 13.407 7.38893L13.6324 7.03055L13.2111 6.60916L16.5292 3.29098C17.0927 3.99389 17.0732 5.28448 16.4668 6.87245Z" fill="#A3A3A3"/>
</svg>
