<svg width="19" height="19" viewBox="0 0 19 19" fill="none" xmlns="http://www.w3.org/2000/svg">
<g clip-path="url(#clip0)">
<path d="M4.58585 8.97861L13.3739 0.214858C13.6618 -0.0721072 14.128 -0.0716248 14.4155 0.216343C14.7027 0.504273 14.7019 0.970699 14.414 1.25789L6.149 9.50003L14.4143 17.7421C14.7022 18.0294 14.7029 18.4955 14.4157 18.7835C14.2717 18.9278 14.0829 19 13.8941 19C13.7058 19 13.5178 18.9283 13.3739 18.7849L4.58585 10.0214C4.44717 9.88344 4.36935 9.69567 4.36935 9.50003C4.36935 9.30439 4.44739 9.11684 4.58585 8.97861Z" fill="#222222"/>
</g>
<defs>
<clipPath id="clip0">
<rect width="19" height="19" fill="white" transform="matrix(-1 0 0 1 19 0)"/>
</clipPath>
</defs>
</svg>
