<svg width="157" height="38" viewBox="0 0 157 38" fill="none" xmlns="http://www.w3.org/2000/svg">
<path d="M58.9707 27.1091C58.6425 25.085 58.6425 20.3258 57.9861 21.0369C56.6732 22.2951 55.5244 23.608 54.1021 24.7568C52.7345 25.7962 51.6404 25.6868 51.3669 24.2645C51.0934 22.7328 51.2575 19.6146 50.7652 19.6693C50.054 19.3958 47.2641 25.6868 45.4042 28.6408C44.3648 30.3366 41.3014 29.6801 42.2861 25.7962C43.0519 22.7875 43.5442 19.6693 44.146 16.6059C43.1066 16.3324 42.0125 16.8247 40.5902 17.2624C40.0979 18.7941 39.7697 20.4899 39.7697 22.2404C39.7697 30.8836 46.7718 37.9404 55.4697 37.9404C61.8153 37.9404 67.2857 34.1659 69.7474 28.7502L64.1676 29.7895C61.7059 30.1178 59.7913 29.516 58.9707 27.1091Z" fill="#F23B3B"/>
<path fill-rule="evenodd" clip-rule="evenodd" d="M55.4697 6.59512C64.1129 6.59512 71.1697 13.5972 71.1697 22.2951C71.1697 23.5533 71.0056 24.8115 70.7321 26.015L66.6293 27.1638C63.73 27.7655 62.8547 26.945 62.7453 24.8115C62.8 22.131 62.8 19.3958 62.8547 16.7153C62.9641 13.8707 60.8307 13.269 59.846 14.4725C57.9314 16.77 55.9073 19.9429 55.4697 19.4505C55.5244 17.9188 55.5244 16.3871 55.5791 14.8554C55.3603 12.7767 53.2268 12.0655 51.7498 13.269C50.7105 14.2537 49.6711 15.2383 48.6317 16.1683C48.6317 14.0348 47.8659 12.8861 45.4042 14.0348L41.192 15.8948C43.5443 10.4244 49.0693 6.59512 55.4697 6.59512Z" fill="#00A1E2"/>
<path d="M11.5972 14.5819V17.2624H7.38502V28.5861H4.21219V17.2624H0V14.5819H11.5972ZM13.6213 28.5861V14.5819H23.085V17.2077H16.7394V19.9429H22.3192V22.5139H16.7394V25.9056H23.5226V28.5314H13.6213V28.5861ZM34.2993 28.5861C33.9164 27.8202 33.4787 26.9997 32.9864 26.2338C32.4941 25.4132 32.0017 24.7568 31.3453 24.2098C31.1812 24.4286 30.9077 24.7021 30.6341 25.085C30.3606 25.4679 30.0324 25.8509 29.7589 26.2885C29.4854 26.7261 29.2118 27.1638 28.9383 27.6014C28.6648 28.039 28.5007 28.422 28.3913 28.6408H24.7808C25.3826 27.5467 26.0937 26.3979 26.8596 25.2491C27.6801 24.1004 28.5554 22.8422 29.5401 21.5293L25.0544 14.5819H28.8836L31.5641 18.63L34.2993 14.5819H37.9098L33.3693 21.3652C34.5728 22.8422 35.5575 24.2098 36.3233 25.4679C37.0892 26.7261 37.6909 27.7655 38.1286 28.5861H34.2993Z" fill="#00A1E2"/>
<path d="M84.1892 23.2251C84.1892 24.0456 84.0798 24.8115 83.8063 25.5226C83.5875 26.2338 83.2045 26.8355 82.7669 27.2732C82.3293 27.7655 81.7822 28.1484 81.1258 28.422C80.4694 28.6955 79.7582 28.8049 78.9923 28.8049C78.2265 28.8049 77.5153 28.6955 76.8589 28.422C76.2025 28.1484 75.6554 27.7655 75.2178 27.2732C74.7802 26.7808 74.3972 26.1791 74.1237 25.5226C73.8502 24.8115 73.7408 24.0456 73.7408 23.2251C73.7408 22.4045 73.8502 21.6387 74.1237 20.9275C74.3972 20.2164 74.7255 19.6693 75.2178 19.177C75.6554 18.6847 76.2572 18.3017 76.8589 18.0282C77.5153 17.7547 78.1718 17.6453 78.9376 17.6453C79.7035 17.6453 80.4147 17.7547 81.0711 18.0282C81.7275 18.3017 82.2746 18.6847 82.7122 19.177C83.1498 19.6693 83.5328 20.2711 83.8063 20.9275C84.0798 21.6387 84.1892 22.4045 84.1892 23.2251ZM81.1258 23.2251C81.1258 22.2951 80.9617 21.584 80.5788 21.0369C80.1958 20.4899 79.7035 20.2164 78.9923 20.2164C78.2812 20.2164 77.7889 20.4899 77.4059 21.0369C77.023 21.584 76.8589 22.2951 76.8589 23.2251C76.8589 24.1551 77.023 24.8662 77.4059 25.4132C77.7889 25.9603 78.3359 26.2338 78.9923 26.2338C79.7035 26.2338 80.1958 25.9603 80.5788 25.4132C80.9617 24.9209 81.1258 24.1551 81.1258 23.2251ZM95.7864 15.4571C95.2941 15.5666 94.8018 15.6213 94.3641 15.676C93.9265 15.7307 93.4889 15.7854 92.9965 15.8401C92.6136 15.8948 92.176 16.0042 91.793 16.1683C91.4101 16.2777 91.0272 16.4965 90.699 16.7153C90.3707 16.9341 90.0425 17.2624 89.8237 17.5906C89.5502 17.9735 89.3861 18.4111 89.2767 18.9035C90.1519 18.4659 91.0272 18.3017 91.8477 18.3017C92.5042 18.3017 93.1059 18.4111 93.653 18.63C94.2 18.8488 94.6924 19.177 95.0753 19.6146C95.5129 20.0523 95.7864 20.5993 96.0599 21.201C96.2788 21.8575 96.3882 22.5686 96.3882 23.4439C96.3882 24.3739 96.2788 25.1397 96.0052 25.8509C95.7317 26.5073 95.3488 27.1091 94.9112 27.5467C94.4735 27.9843 93.9265 28.3125 93.2701 28.5314C92.6683 28.7502 92.0119 28.8596 91.3007 28.8596C89.4408 28.8596 88.0732 28.3125 87.3073 27.1638C86.4868 26.015 86.1039 24.3739 86.1039 22.131C86.1039 20.654 86.268 19.4505 86.5415 18.4111C86.815 17.3718 87.2526 16.5512 87.7997 15.8401C88.3467 15.1836 89.0579 14.6366 89.8784 14.2537C90.699 13.8707 91.6836 13.5425 92.7777 13.3237C93.2153 13.2143 93.653 13.1596 94.1453 13.1049C94.5829 13.0502 95.0753 12.9955 95.5129 12.8861L95.7864 15.4571ZM89.1673 21.4199C89.1673 21.584 89.1126 21.8028 89.1126 22.0763C89.1126 22.2951 89.1126 22.5139 89.1126 22.7328C89.1126 23.9362 89.2767 24.8115 89.6049 25.4132C89.9331 26.015 90.4802 26.3432 91.246 26.3432C91.9025 26.3432 92.3948 26.0697 92.7777 25.5774C93.1059 25.085 93.3248 24.3739 93.3248 23.4986C93.3248 23.1704 93.2701 22.8422 93.2153 22.5139C93.1606 22.1857 92.9965 21.9122 92.8324 21.6934C92.6683 21.4746 92.4495 21.2557 92.176 21.0916C91.9025 20.9275 91.6289 20.8728 91.246 20.8728C90.9178 20.8728 90.5349 20.9275 90.1519 20.9822C89.769 21.0369 89.4408 21.201 89.1673 21.4199ZM108.314 17.9735V28.5861H105.305C105.305 27.9296 105.305 27.2185 105.305 26.562C105.305 25.9056 105.305 25.3038 105.36 24.7021C105.36 24.1551 105.414 23.6627 105.414 23.2251C105.414 22.7875 105.469 22.5139 105.469 22.2951C105.086 22.8422 104.703 23.3892 104.32 23.9909C103.937 24.538 103.554 25.085 103.226 25.6321C102.843 26.1791 102.515 26.7261 102.241 27.2185C101.913 27.7108 101.64 28.1484 101.421 28.5861H98.7951V17.9735H101.804C101.804 18.63 101.804 19.2864 101.804 19.8882C101.804 20.4899 101.804 21.0369 101.749 21.5293C101.749 22.0216 101.749 22.4592 101.694 22.8422C101.694 23.2251 101.694 23.4986 101.694 23.7174C102.515 22.5139 103.226 21.4746 103.937 20.5446C104.594 19.6146 105.305 18.7394 105.907 17.9735H108.314ZM115.917 20.4352C115.917 20.8181 115.863 21.2557 115.863 21.6934C115.863 22.131 115.808 22.5686 115.753 23.0063C115.699 23.4439 115.644 23.8815 115.535 24.2645C115.425 24.7021 115.316 25.085 115.206 25.4132C115.042 25.8509 114.823 26.2338 114.605 26.6167C114.331 26.9997 114.058 27.3279 113.675 27.6014C113.292 27.8749 112.799 28.1484 112.307 28.3125C111.76 28.5314 111.104 28.6408 110.392 28.6955L110.009 26.1791C110.721 26.0697 111.213 25.8509 111.596 25.5774C111.979 25.3038 112.252 25.0303 112.471 24.5927C112.635 24.2645 112.745 23.8815 112.799 23.4439C112.909 23.0063 112.963 22.5139 113.018 22.0216C113.073 21.5293 113.073 21.0369 113.073 20.4899C113.073 19.9976 113.073 19.5052 113.073 19.0129V17.8094H121.06V28.422H118.051V20.4352H115.917ZM133.532 17.9735V28.5861H130.523C130.523 27.9296 130.523 27.2185 130.523 26.562C130.523 25.9056 130.523 25.3038 130.578 24.7021C130.578 24.1551 130.633 23.6627 130.633 23.2251C130.633 22.7875 130.687 22.5139 130.687 22.2951C130.305 22.8422 129.922 23.3892 129.539 23.9909C129.156 24.538 128.773 25.085 128.445 25.6321C128.062 26.1791 127.733 26.7261 127.46 27.2185C127.132 27.7108 126.858 28.1484 126.639 28.5861H124.014V17.9735H127.022C127.022 18.63 127.022 19.2864 127.022 19.8882C127.022 20.4899 127.022 21.0369 126.968 21.5293C126.968 22.0216 126.968 22.4592 126.913 22.8422C126.913 23.2251 126.913 23.4986 126.913 23.7174C127.733 22.5139 128.445 21.4746 129.156 20.5446C129.812 19.6146 130.523 18.7394 131.125 17.9735H133.532ZM145.129 20.4352H141.738V28.5861H138.729V20.4352H135.337V17.9735H145.129V20.4352ZM156.617 17.9735V28.5861H153.608C153.608 27.9296 153.608 27.2185 153.608 26.562C153.608 25.9056 153.608 25.3038 153.663 24.7021C153.663 24.1551 153.718 23.6627 153.718 23.2251C153.718 22.7875 153.772 22.5139 153.772 22.2951C153.39 22.8422 153.007 23.3892 152.624 23.9909C152.241 24.538 151.858 25.085 151.53 25.6321C151.147 26.1791 150.818 26.7261 150.545 27.2185C150.217 27.7108 149.943 28.1484 149.724 28.5861H147.099V17.9735H150.107C150.107 18.63 150.107 19.2864 150.107 19.8882C150.107 20.4899 150.107 21.0369 150.053 21.5293C150.053 22.0216 150.053 22.4592 149.998 22.8422C149.998 23.2251 149.998 23.4986 149.998 23.7174C150.818 22.5139 151.53 21.4746 152.241 20.5446C152.897 19.6146 153.608 18.7394 154.21 17.9735H156.617Z" fill="#F23B3B"/>
<path d="M67.6686 12.9955H64.824L67.2857 4.51638C66.6293 4.78989 65.754 5.06341 64.6052 5.39164L64.6599 4.95401C65.5899 4.73519 66.4105 4.46167 67.1763 4.13345C67.9422 3.80523 68.5439 3.53171 68.9268 3.31289C69.3098 3.09408 69.8021 2.76585 70.2944 2.43763H70.6774L67.6686 12.9955Z" fill="#F23B3B" stroke="white" stroke-width="3"/>
<path d="M76.7495 2.27352C78.0077 2.27352 78.9376 2.60174 79.6488 3.20349C80.3599 3.85993 80.6881 4.73519 80.6881 5.88397C80.6881 6.59512 80.5787 7.30627 80.3599 8.01742C80.1411 8.72857 79.7582 9.38502 79.3206 9.98676C78.8829 10.5885 78.3906 11.1355 77.7888 11.6279C77.1871 12.1202 76.5854 12.5031 75.8195 12.7767C75.1084 13.0502 74.3425 13.2143 73.5766 13.2143C72.3185 13.2143 71.3885 12.8861 70.6226 12.2296C69.9115 11.5732 69.5286 10.6979 69.5286 9.54913C69.5286 8.67387 69.6927 7.79861 70.0756 6.86864C70.4585 5.99338 70.9509 5.22753 71.6073 4.51638C72.2638 3.85993 73.0296 3.25819 73.9049 2.87526C74.9442 2.49234 75.8195 2.27352 76.7495 2.27352ZM76.476 2.60174C75.7648 2.60174 75.1084 2.98467 74.4519 3.69582C73.8502 4.46167 73.3578 5.33694 73.0296 6.48572C72.7014 7.57979 72.5373 8.72857 72.5373 9.93206C72.5373 10.9167 72.7014 11.6826 72.9202 12.1202C73.1937 12.6125 73.5219 12.8314 73.9049 12.8314C74.4519 12.8314 74.9989 12.6125 75.4913 12.1749C75.9836 11.7373 76.3665 11.1355 76.6948 10.4244C77.023 9.71324 77.2965 8.94739 77.4606 8.07213C77.6247 7.19687 77.7341 6.32161 77.7341 5.50105C77.7341 4.51638 77.6247 3.80523 77.3512 3.3676C77.1871 2.87526 76.8589 2.60174 76.476 2.60174Z" fill="#F23B3B" stroke="white" stroke-width="3"/>
<path d="M67.6686 12.9955H64.824L67.2857 4.51638C66.6293 4.78989 65.754 5.06341 64.6052 5.39164L64.6599 4.95401C65.5899 4.73519 66.4105 4.46167 67.1763 4.13345C67.9422 3.80523 68.5439 3.53171 68.9268 3.31289C69.3098 3.09408 69.8021 2.76585 70.2944 2.43763H70.6774L67.6686 12.9955Z" fill="#F23B3B"/>
<path d="M76.7495 2.27352C78.0077 2.27352 78.9376 2.60174 79.6488 3.20349C80.3599 3.85993 80.6881 4.73519 80.6881 5.88397C80.6881 6.59512 80.5787 7.30627 80.3599 8.01742C80.1411 8.72857 79.7582 9.38502 79.3206 9.98676C78.8829 10.5885 78.3906 11.1355 77.7888 11.6279C77.1871 12.1202 76.5854 12.5031 75.8195 12.7767C75.1084 13.0502 74.3425 13.2143 73.5766 13.2143C72.3185 13.2143 71.3885 12.8861 70.6226 12.2296C69.9115 11.5732 69.5286 10.6979 69.5286 9.54913C69.5286 8.67387 69.6927 7.79861 70.0756 6.86864C70.4585 5.99338 70.9509 5.22753 71.6073 4.51638C72.2638 3.85993 73.0296 3.25819 73.9049 2.87526C74.9442 2.49234 75.8195 2.27352 76.7495 2.27352ZM76.476 2.60174C75.7648 2.60174 75.1084 2.98467 74.4519 3.69582C73.8502 4.46167 73.3578 5.33694 73.0296 6.48572C72.7014 7.57979 72.5373 8.72857 72.5373 9.93206C72.5373 10.9167 72.7014 11.6826 72.9202 12.1202C73.1937 12.6125 73.5219 12.8314 73.9049 12.8314C74.4519 12.8314 74.9989 12.6125 75.4913 12.1749C75.9836 11.7373 76.3665 11.1355 76.6948 10.4244C77.023 9.71324 77.2965 8.94739 77.4606 8.07213C77.6247 7.19687 77.7341 6.32161 77.7341 5.50105C77.7341 4.51638 77.6247 3.80523 77.3512 3.3676C77.1871 2.87526 76.8589 2.60174 76.476 2.60174Z" fill="#F23B3B"/>
<path d="M84.4627 8.01742H84.6815L84.408 8.83798C84.1345 9.60383 83.6422 9.98676 82.931 9.98676C82.5481 9.98676 82.2199 9.87735 82.0558 9.60383C82.0011 9.49442 81.9464 9.33031 81.9464 9.1662C81.9464 9.00209 82.0011 8.72857 82.0558 8.45505L82.8216 5.50104C82.8216 5.39164 82.8216 5.28223 82.8216 5.17282C82.8216 4.8993 82.7669 4.68049 82.6575 4.51637C82.5481 4.35226 82.4387 4.29756 82.2746 4.29756C82.1652 4.29756 82.0558 4.29756 82.0011 4.35226C81.8916 4.40697 81.8369 4.46167 81.7275 4.57108C81.6728 4.68049 81.5634 4.78989 81.5087 4.8993C81.454 5.00871 81.3993 5.17282 81.3446 5.33693C81.2899 5.55575 81.2352 5.71986 81.1805 5.82927C81.1258 5.99338 81.0711 6.15749 81.0164 6.43101C80.9617 6.59512 80.9617 6.75923 80.907 6.81394C80.8523 7.14216 80.7429 7.36097 80.6882 7.57979C80.6335 7.7986 80.5788 8.01742 80.4693 8.29094C80.3599 8.56446 80.3052 8.78327 80.1958 8.94738C80.0864 9.1115 79.977 9.27561 79.8676 9.43972C79.7582 9.60383 79.5941 9.71324 79.43 9.82265C79.2659 9.93205 79.047 9.98676 78.8282 9.98676C78.5547 9.98676 78.3359 9.93205 78.1718 9.76794C78.0077 9.60383 77.953 9.38502 77.953 9.1662C77.953 8.89268 78.0624 8.67387 78.2265 8.50975C78.3906 8.34564 78.6094 8.23624 78.8829 8.23624C79.1018 8.23624 79.2659 8.29094 79.3753 8.40035C79.4847 8.50975 79.5394 8.67387 79.5394 8.83798C79.5394 9.05679 79.4847 9.2209 79.3206 9.38502C79.2112 9.54913 79.047 9.71324 78.8282 9.82265C78.8282 9.82265 78.8829 9.82265 78.9376 9.82265C79.2112 9.82265 79.43 9.71324 79.5941 9.49442C79.8129 9.27561 79.977 9.00209 80.1411 8.61916C80.3052 8.23624 80.4146 7.90801 80.4693 7.6892C80.5241 7.47038 80.6335 7.14216 80.7429 6.70453C80.7429 6.59512 80.7976 6.54042 80.7976 6.54042C80.907 6.21219 80.9617 5.88397 81.0164 5.66516C81.0711 5.44634 81.1805 5.22752 81.2352 5.00871C81.3446 4.78989 81.3993 4.62578 81.5087 4.46167C81.6181 4.35226 81.7275 4.24286 81.8369 4.18815C81.9464 4.13345 82.1105 4.07874 82.2746 4.07874C82.4934 4.07874 82.6575 4.13345 82.7669 4.29756C82.8763 4.46167 82.931 4.62578 82.9857 4.8446L83.1498 4.18815C83.8063 4.18815 84.2986 4.13345 84.7362 4.02404L83.3687 8.94738C83.3139 9.1115 83.3139 9.2209 83.3139 9.27561C83.3139 9.38502 83.3687 9.49442 83.5328 9.49442C83.6422 9.49442 83.8063 9.43972 83.9157 9.27561C84.0251 9.1662 84.1345 8.94738 84.2439 8.61916L84.4627 8.01742Z" fill="#00A1E2" stroke="white" stroke-width="2" stroke-linejoin="bevel"/>
<path d="M89.222 8.40035L89.3861 8.50975C89.222 8.78327 89.0032 9.00209 88.7843 9.2209C88.5655 9.43972 88.2373 9.60383 87.9091 9.76794C87.5809 9.93205 87.1979 9.98676 86.815 9.98676C86.3227 9.98676 85.885 9.87735 85.5568 9.60383C85.2286 9.33031 85.0645 8.94738 85.0645 8.45505C85.0645 8.12683 85.1192 7.7986 85.1739 7.47038C85.2833 7.14216 85.3927 6.81394 85.5568 6.48571C85.7209 6.15749 85.9397 5.82927 86.1586 5.55575C86.3774 5.28223 86.6509 5.00871 86.9244 4.78989C87.1979 4.57108 87.5262 4.40697 87.9091 4.24286C88.2373 4.13345 88.6202 4.02404 89.0032 4.02404C89.3314 4.02404 89.6049 4.07874 89.8237 4.24286C90.0425 4.40697 90.1519 4.62578 90.1519 4.8993C90.1519 5.22752 90.0425 5.55575 89.8237 5.82927C89.6049 6.10279 89.3314 6.37631 89.0032 6.59512C88.6749 6.81394 88.292 6.97805 87.9091 7.14216C87.5262 7.30627 87.1432 7.41568 86.7603 7.52509C86.7056 7.7986 86.7056 8.01742 86.7056 8.29094C86.7056 8.67387 86.7603 8.94738 86.9244 9.1115C87.0885 9.27561 87.3073 9.33031 87.5809 9.33031C87.7997 9.33031 88.0732 9.27561 88.3467 9.1115C88.7296 8.94738 89.0032 8.72857 89.222 8.40035ZM88.839 4.18815C88.6202 4.18815 88.4014 4.35226 88.1279 4.62578C87.8544 4.8993 87.6356 5.33693 87.4167 5.77456C87.1979 6.2669 87.0338 6.75923 86.9244 7.25157C87.4167 7.03275 87.8544 6.75923 88.1279 6.48571C88.7296 5.93867 89.0579 5.22752 89.0579 4.46167C89.0032 4.29756 88.9485 4.18815 88.839 4.18815Z" fill="#00A1E2" stroke="white" stroke-width="2" stroke-linejoin="bevel"/>
<path d="M99.1781 7.96272L98.9045 8.78327C98.631 9.54913 98.1387 9.93205 97.4275 9.93205C96.9899 9.93205 96.7164 9.82265 96.5523 9.54913C96.4976 9.43972 96.4429 9.27561 96.4429 9.05679C96.4429 8.83798 96.4976 8.50975 96.607 8.18153L97.5916 5.22752C97.6463 5.06341 97.7011 4.8993 97.7011 4.78989C97.7011 4.62578 97.6463 4.57108 97.5369 4.57108C97.2087 4.57108 96.8805 4.954 96.4429 5.66515C96.0052 6.3763 95.6223 7.41568 95.1847 8.83798L94.9112 9.87735H93.3247L94.6376 5.33693C94.6923 5.11812 94.747 4.954 94.747 4.8993C94.747 4.73519 94.6923 4.68049 94.5829 4.68049C94.2547 4.68049 93.8718 5.06341 93.4889 5.82927C93.0512 6.59512 92.6683 7.57979 92.3401 8.83798L92.0666 9.98676H90.5349L91.8477 5.22752C91.9024 5.11812 91.9024 5.00871 91.9024 4.8993C91.9024 4.73519 91.8477 4.68049 91.6836 4.68049C91.5742 4.68049 91.4101 4.73519 91.3007 4.8993C91.1913 5.06341 91.0819 5.28223 90.9725 5.55575L90.7537 6.10278H90.5349L90.8084 5.28223C91.0819 4.51637 91.5742 4.13345 92.2854 4.13345C92.8871 4.13345 93.1606 4.40697 93.1606 5.00871C93.1606 5.22752 93.1059 5.44634 93.0512 5.66515L92.7777 6.64982C93.1059 5.71986 93.4889 5.11812 93.8718 4.73519C94.2547 4.35226 94.6923 4.13345 95.2394 4.13345C95.8411 4.13345 96.1146 4.40697 96.1146 4.954C96.1146 5.17282 96.0599 5.44634 96.0052 5.77456L95.7864 6.48571C96.1693 5.61045 96.4976 5.00871 96.8805 4.62578C97.2634 4.24285 97.7011 4.07874 98.1934 4.07874C98.7951 4.07874 99.0686 4.35226 99.0686 4.954C99.0686 5.17282 99.0139 5.44634 98.9045 5.77456L97.8652 9.00209C97.8105 9.1115 97.8105 9.2209 97.8105 9.33031C97.8105 9.49442 97.8652 9.54913 98.0293 9.54913C98.3028 9.54913 98.5216 9.27561 98.7404 8.67386L98.9592 8.12683L99.1781 7.96272Z" fill="#00A1E2" stroke="white" stroke-width="2" stroke-linejoin="bevel"/>
<path d="M84.4627 8.01742H84.6815L84.408 8.83798C84.1345 9.60383 83.6422 9.98676 82.931 9.98676C82.5481 9.98676 82.2199 9.87735 82.0558 9.60383C82.0011 9.49442 81.9464 9.33031 81.9464 9.1662C81.9464 9.00209 82.0011 8.72857 82.0558 8.45505L82.8216 5.50104C82.8216 5.39164 82.8216 5.28223 82.8216 5.17282C82.8216 4.8993 82.7669 4.68049 82.6575 4.51637C82.5481 4.35226 82.4387 4.29756 82.2746 4.29756C82.1652 4.29756 82.0558 4.29756 82.0011 4.35226C81.8916 4.40697 81.8369 4.46167 81.7275 4.57108C81.6728 4.68049 81.5634 4.78989 81.5087 4.8993C81.454 5.00871 81.3993 5.17282 81.3446 5.33693C81.2899 5.55575 81.2352 5.71986 81.1805 5.82927C81.1258 5.99338 81.0711 6.15749 81.0164 6.43101C80.9617 6.59512 80.9617 6.75923 80.907 6.81394C80.8523 7.14216 80.7429 7.36097 80.6882 7.57979C80.6335 7.7986 80.5788 8.01742 80.4693 8.29094C80.3599 8.56446 80.3052 8.78327 80.1958 8.94738C80.0864 9.1115 79.977 9.27561 79.8676 9.43972C79.7582 9.60383 79.5941 9.71324 79.43 9.82265C79.2659 9.93205 79.047 9.98676 78.8282 9.98676C78.5547 9.98676 78.3359 9.93205 78.1718 9.76794C78.0077 9.60383 77.953 9.38502 77.953 9.1662C77.953 8.89268 78.0624 8.67387 78.2265 8.50975C78.3906 8.34564 78.6094 8.23624 78.8829 8.23624C79.1018 8.23624 79.2659 8.29094 79.3753 8.40035C79.4847 8.50975 79.5394 8.67387 79.5394 8.83798C79.5394 9.05679 79.4847 9.2209 79.3206 9.38502C79.2112 9.54913 79.047 9.71324 78.8282 9.82265C78.8282 9.82265 78.8829 9.82265 78.9376 9.82265C79.2112 9.82265 79.43 9.71324 79.5941 9.49442C79.8129 9.27561 79.977 9.00209 80.1411 8.61916C80.3052 8.23624 80.4146 7.90801 80.4693 7.6892C80.5241 7.47038 80.6335 7.14216 80.7429 6.70453C80.7429 6.59512 80.7976 6.54042 80.7976 6.54042C80.907 6.21219 80.9617 5.88397 81.0164 5.66516C81.0711 5.44634 81.1805 5.22752 81.2352 5.00871C81.3446 4.78989 81.3993 4.62578 81.5087 4.46167C81.6181 4.35226 81.7275 4.24286 81.8369 4.18815C81.9464 4.13345 82.1105 4.07874 82.2746 4.07874C82.4934 4.07874 82.6575 4.13345 82.7669 4.29756C82.8763 4.46167 82.931 4.62578 82.9857 4.8446L83.1498 4.18815C83.8063 4.18815 84.2986 4.13345 84.7362 4.02404L83.3687 8.94738C83.3139 9.1115 83.3139 9.2209 83.3139 9.27561C83.3139 9.38502 83.3687 9.49442 83.5328 9.49442C83.6422 9.49442 83.8063 9.43972 83.9157 9.27561C84.0251 9.1662 84.1345 8.94738 84.2439 8.61916L84.4627 8.01742Z" fill="#F23B3B"/>
<path d="M89.222 8.40035L89.3861 8.50975C89.222 8.78327 89.0032 9.00209 88.7843 9.2209C88.5655 9.43972 88.2373 9.60383 87.9091 9.76794C87.5809 9.93205 87.1979 9.98676 86.815 9.98676C86.3227 9.98676 85.885 9.87735 85.5568 9.60383C85.2286 9.33031 85.0645 8.94738 85.0645 8.45505C85.0645 8.12683 85.1192 7.7986 85.1739 7.47038C85.2833 7.14216 85.3927 6.81394 85.5568 6.48571C85.7209 6.15749 85.9397 5.82927 86.1586 5.55575C86.3774 5.28223 86.6509 5.00871 86.9244 4.78989C87.1979 4.57108 87.5262 4.40697 87.9091 4.24286C88.2373 4.13345 88.6202 4.02404 89.0032 4.02404C89.3314 4.02404 89.6049 4.07874 89.8237 4.24286C90.0425 4.40697 90.1519 4.62578 90.1519 4.8993C90.1519 5.22752 90.0425 5.55575 89.8237 5.82927C89.6049 6.10279 89.3314 6.37631 89.0032 6.59512C88.6749 6.81394 88.292 6.97805 87.9091 7.14216C87.5262 7.30627 87.1432 7.41568 86.7603 7.52509C86.7056 7.7986 86.7056 8.01742 86.7056 8.29094C86.7056 8.67387 86.7603 8.94738 86.9244 9.1115C87.0885 9.27561 87.3073 9.33031 87.5809 9.33031C87.7997 9.33031 88.0732 9.27561 88.3467 9.1115C88.7296 8.94738 89.0032 8.72857 89.222 8.40035ZM88.839 4.18815C88.6202 4.18815 88.4014 4.35226 88.1279 4.62578C87.8544 4.8993 87.6356 5.33693 87.4167 5.77456C87.1979 6.2669 87.0338 6.75923 86.9244 7.25157C87.4167 7.03275 87.8544 6.75923 88.1279 6.48571C88.7296 5.93867 89.0579 5.22752 89.0579 4.46167C89.0032 4.29756 88.9485 4.18815 88.839 4.18815Z" fill="#F23B3B"/>
<path d="M99.1781 7.96272L98.9045 8.78327C98.631 9.54913 98.1387 9.93205 97.4275 9.93205C96.9899 9.93205 96.7164 9.82265 96.5523 9.54913C96.4976 9.43972 96.4429 9.27561 96.4429 9.05679C96.4429 8.83798 96.4976 8.50975 96.607 8.18153L97.5916 5.22752C97.6463 5.06341 97.7011 4.8993 97.7011 4.78989C97.7011 4.62578 97.6463 4.57108 97.5369 4.57108C97.2087 4.57108 96.8805 4.954 96.4429 5.66515C96.0052 6.3763 95.6223 7.41568 95.1847 8.83798L94.9112 9.87735H93.3247L94.6376 5.33693C94.6923 5.11812 94.747 4.954 94.747 4.8993C94.747 4.73519 94.6923 4.68049 94.5829 4.68049C94.2547 4.68049 93.8718 5.06341 93.4889 5.82927C93.0512 6.59512 92.6683 7.57979 92.3401 8.83798L92.0666 9.98676H90.5349L91.8477 5.22752C91.9024 5.11812 91.9024 5.00871 91.9024 4.8993C91.9024 4.73519 91.8477 4.68049 91.6836 4.68049C91.5742 4.68049 91.4101 4.73519 91.3007 4.8993C91.1913 5.06341 91.0819 5.28223 90.9725 5.55575L90.7537 6.10278H90.5349L90.8084 5.28223C91.0819 4.51637 91.5742 4.13345 92.2854 4.13345C92.8871 4.13345 93.1606 4.40697 93.1606 5.00871C93.1606 5.22752 93.1059 5.44634 93.0512 5.66515L92.7777 6.64982C93.1059 5.71986 93.4889 5.11812 93.8718 4.73519C94.2547 4.35226 94.6923 4.13345 95.2394 4.13345C95.8411 4.13345 96.1146 4.40697 96.1146 4.954C96.1146 5.17282 96.0599 5.44634 96.0052 5.77456L95.7864 6.48571C96.1693 5.61045 96.4976 5.00871 96.8805 4.62578C97.2634 4.24285 97.7011 4.07874 98.1934 4.07874C98.7951 4.07874 99.0686 4.35226 99.0686 4.954C99.0686 5.17282 99.0139 5.44634 98.9045 5.77456L97.8652 9.00209C97.8105 9.1115 97.8105 9.2209 97.8105 9.33031C97.8105 9.49442 97.8652 9.54913 98.0293 9.54913C98.3028 9.54913 98.5216 9.27561 98.7404 8.67386L98.9592 8.12683L99.1781 7.96272Z" fill="#F23B3B"/>
</svg>
