<svg width="157" height="38" viewBox="0 0 157 38" fill="none" xmlns="http://www.w3.org/2000/svg">
<path d="M58.9707 27.1093C58.6425 25.0852 58.6425 20.326 57.9861 21.0371C56.6732 22.2953 55.5244 23.6082 54.1021 24.757C52.7345 25.7964 51.6404 25.687 51.3669 24.2647C51.0934 22.7329 51.2575 19.6148 50.7652 19.6695C50.054 19.396 47.2641 25.687 45.4042 28.641C44.3648 30.3368 41.3014 29.6803 42.2861 25.7964C43.0519 22.7877 43.5442 19.6695 44.146 16.6061C43.1066 16.3326 42.0125 16.8249 40.5902 17.2626C40.0979 18.7943 39.7697 20.4901 39.7697 22.2406C39.7697 30.8838 46.7718 37.9406 55.4697 37.9406C61.8153 37.9406 67.2857 34.166 69.7474 28.7504L64.1676 29.7897C61.7059 30.118 59.7913 29.5162 58.9707 27.1093Z" fill="white"/>
<path fill-rule="evenodd" clip-rule="evenodd" d="M55.4697 6.5957C64.1129 6.5957 71.1697 13.5978 71.1697 22.2957C71.1697 23.5539 71.0056 24.8121 70.7321 26.0156L66.6293 27.1643C63.73 27.7661 62.8547 26.9455 62.7453 24.8121C62.8 22.1316 62.8 19.3964 62.8547 16.7159C62.9641 13.8713 60.8307 13.2696 59.846 14.4731C57.9314 16.7706 55.9073 19.9434 55.4697 19.4511C55.5244 17.9194 55.5244 16.3877 55.5791 14.856C55.3603 12.7772 53.2268 12.0661 51.7498 13.2696C50.7105 14.2542 49.6711 15.2389 48.6317 16.1689C48.6317 14.0354 47.8659 12.8866 45.4042 14.0354L41.192 15.8954C43.5443 10.425 49.0693 6.5957 55.4697 6.5957Z" fill="white"/>
<path d="M11.5972 14.582V17.2625H7.38502V28.5862H4.21219V17.2625H0V14.582H11.5972ZM13.6213 28.5862V14.582H23.085V17.2078H16.7394V19.943H22.3192V22.5141H16.7394V25.9057H23.5226V28.5315H13.6213V28.5862ZM34.2993 28.5862C33.9164 27.8204 33.4787 26.9998 32.9864 26.2339C32.4941 25.4134 32.0017 24.7569 31.3453 24.2099C31.1812 24.4287 30.9077 24.7022 30.6341 25.0852C30.3606 25.4681 30.0324 25.851 29.7589 26.2887C29.4854 26.7263 29.2118 27.1639 28.9383 27.6015C28.6648 28.0392 28.5007 28.4221 28.3913 28.6409H24.7808C25.3826 27.5468 26.0937 26.3981 26.8596 25.2493C27.6801 24.1005 28.5554 22.8423 29.5401 21.5294L25.0544 14.582H28.8836L31.5641 18.6301L34.2993 14.582H37.9098L33.3693 21.3653C34.5728 22.8423 35.5575 24.2099 36.3233 25.4681C37.0892 26.7263 37.6909 27.7657 38.1286 28.5862H34.2993Z" fill="white"/>
<path d="M84.1892 23.2257C84.1892 24.0463 84.0798 24.8122 83.8063 25.5233C83.5875 26.2345 83.2045 26.8362 82.7669 27.2738C82.3293 27.7662 81.7822 28.1491 81.1258 28.4226C80.4694 28.6961 79.7582 28.8055 78.9923 28.8055C78.2265 28.8055 77.5153 28.6961 76.8589 28.4226C76.2025 28.1491 75.6554 27.7662 75.2178 27.2738C74.7802 26.7815 74.3972 26.1798 74.1237 25.5233C73.8502 24.8122 73.7408 24.0463 73.7408 23.2257C73.7408 22.4052 73.8502 21.6393 74.1237 20.9282C74.3972 20.217 74.7255 19.67 75.2178 19.1777C75.6554 18.6853 76.2572 18.3024 76.8589 18.0289C77.5153 17.7554 78.1718 17.646 78.9376 17.646C79.7035 17.646 80.4147 17.7554 81.0711 18.0289C81.7275 18.3024 82.2746 18.6853 82.7122 19.1777C83.1498 19.67 83.5328 20.2717 83.8063 20.9282C84.0798 21.6393 84.1892 22.4052 84.1892 23.2257ZM81.1258 23.2257C81.1258 22.2958 80.9617 21.5846 80.5788 21.0376C80.1958 20.4906 79.7035 20.217 78.9923 20.217C78.2812 20.217 77.7889 20.4906 77.4059 21.0376C77.023 21.5846 76.8589 22.2958 76.8589 23.2257C76.8589 24.1557 77.023 24.8669 77.4059 25.4139C77.7889 25.9609 78.3359 26.2345 78.9923 26.2345C79.7035 26.2345 80.1958 25.9609 80.5788 25.4139C80.9617 24.9216 81.1258 24.1557 81.1258 23.2257ZM95.7864 15.4578C95.2941 15.5672 94.8018 15.6219 94.3641 15.6766C93.9265 15.7313 93.4889 15.786 92.9965 15.8407C92.6136 15.8954 92.176 16.0048 91.793 16.1689C91.4101 16.2784 91.0272 16.4972 90.699 16.716C90.3707 16.9348 90.0425 17.263 89.8237 17.5912C89.5502 17.9742 89.3861 18.4118 89.2767 18.9041C90.1519 18.4665 91.0272 18.3024 91.8477 18.3024C92.5042 18.3024 93.1059 18.4118 93.653 18.6306C94.2 18.8494 94.6924 19.1777 95.0753 19.6153C95.5129 20.0529 95.7864 20.6 96.0599 21.2017C96.2788 21.8581 96.3882 22.5693 96.3882 23.4446C96.3882 24.3745 96.2788 25.1404 96.0052 25.8515C95.7317 26.508 95.3488 27.1097 94.9112 27.5473C94.4735 27.985 93.9265 28.3132 93.2701 28.532C92.6683 28.7508 92.0119 28.8602 91.3007 28.8602C89.4408 28.8602 88.0732 28.3132 87.3073 27.1644C86.4868 26.0156 86.1039 24.3745 86.1039 22.1317C86.1039 20.6547 86.268 19.4512 86.5415 18.4118C86.815 17.3724 87.2526 16.5519 87.7997 15.8407C88.3467 15.1843 89.0579 14.6372 89.8784 14.2543C90.699 13.8714 91.6836 13.5432 92.7777 13.3243C93.2153 13.2149 93.653 13.1602 94.1453 13.1055C94.5829 13.0508 95.0753 12.9961 95.5129 12.8867L95.7864 15.4578ZM89.1673 21.4205C89.1673 21.5846 89.1126 21.8034 89.1126 22.077C89.1126 22.2958 89.1126 22.5146 89.1126 22.7334C89.1126 23.9369 89.2767 24.8122 89.6049 25.4139C89.9331 26.0156 90.4802 26.3439 91.246 26.3439C91.9025 26.3439 92.3948 26.0703 92.7777 25.578C93.1059 25.0857 93.3248 24.3745 93.3248 23.4993C93.3248 23.171 93.2701 22.8428 93.2153 22.5146C93.1606 22.1864 92.9965 21.9129 92.8324 21.694C92.6683 21.4752 92.4495 21.2564 92.176 21.0923C91.9025 20.9282 91.6289 20.8735 91.246 20.8735C90.9178 20.8735 90.5349 20.9282 90.1519 20.9829C89.769 21.0376 89.4408 21.2017 89.1673 21.4205ZM108.314 17.9742V28.5867H105.305C105.305 27.9303 105.305 27.2191 105.305 26.5627C105.305 25.9062 105.305 25.3045 105.36 24.7027C105.36 24.1557 105.414 23.6634 105.414 23.2257C105.414 22.7881 105.469 22.5146 105.469 22.2958C105.086 22.8428 104.703 23.3899 104.32 23.9916C103.937 24.5386 103.554 25.0857 103.226 25.6327C102.843 26.1797 102.515 26.7268 102.241 27.2191C101.913 27.7115 101.64 28.1491 101.421 28.5867H98.7951V17.9742H101.804C101.804 18.6306 101.804 19.2871 101.804 19.8888C101.804 20.4906 101.804 21.0376 101.749 21.5299C101.749 22.0223 101.749 22.4599 101.694 22.8428C101.694 23.2257 101.694 23.4993 101.694 23.7181C102.515 22.5146 103.226 21.4752 103.937 20.5453C104.594 19.6153 105.305 18.74 105.907 17.9742H108.314ZM115.917 20.4358C115.917 20.8188 115.863 21.2564 115.863 21.694C115.863 22.1317 115.808 22.5693 115.753 23.0069C115.699 23.4446 115.644 23.8822 115.535 24.2651C115.425 24.7027 115.316 25.0857 115.206 25.4139C115.042 25.8515 114.823 26.2345 114.605 26.6174C114.331 27.0003 114.058 27.3285 113.675 27.602C113.292 27.8756 112.799 28.1491 112.307 28.3132C111.76 28.532 111.104 28.6414 110.392 28.6961L110.009 26.1798C110.721 26.0703 111.213 25.8515 111.596 25.578C111.979 25.3045 112.252 25.031 112.471 24.5933C112.635 24.2651 112.745 23.8822 112.799 23.4446C112.909 23.0069 112.963 22.5146 113.018 22.0223C113.073 21.5299 113.073 21.0376 113.073 20.4906C113.073 19.9982 113.073 19.5059 113.073 19.0135V17.8101H121.06V28.4226H118.051V20.4358H115.917ZM133.532 17.9742V28.5867H130.523C130.523 27.9303 130.523 27.2191 130.523 26.5627C130.523 25.9062 130.523 25.3045 130.578 24.7027C130.578 24.1557 130.633 23.6634 130.633 23.2257C130.633 22.7881 130.687 22.5146 130.687 22.2958C130.305 22.8428 129.922 23.3899 129.539 23.9916C129.156 24.5386 128.773 25.0857 128.445 25.6327C128.062 26.1797 127.733 26.7268 127.46 27.2191C127.132 27.7115 126.858 28.1491 126.639 28.5867H124.014V17.9742H127.022C127.022 18.6306 127.022 19.2871 127.022 19.8888C127.022 20.4906 127.022 21.0376 126.968 21.5299C126.968 22.0223 126.968 22.4599 126.913 22.8428C126.913 23.2257 126.913 23.4993 126.913 23.7181C127.733 22.5146 128.445 21.4752 129.156 20.5453C129.812 19.6153 130.523 18.74 131.125 17.9742H133.532ZM145.129 20.4358H141.738V28.5867H138.729V20.4358H135.337V17.9742H145.129V20.4358ZM156.617 17.9742V28.5867H153.608C153.608 27.9303 153.608 27.2191 153.608 26.5627C153.608 25.9062 153.608 25.3045 153.663 24.7027C153.663 24.1557 153.718 23.6634 153.718 23.2257C153.718 22.7881 153.772 22.5146 153.772 22.2958C153.39 22.8428 153.007 23.3899 152.624 23.9916C152.241 24.5386 151.858 25.0857 151.53 25.6327C151.147 26.1797 150.818 26.7268 150.545 27.2191C150.217 27.7115 149.943 28.1491 149.724 28.5867H147.099V17.9742H150.107C150.107 18.6306 150.107 19.2871 150.107 19.8888C150.107 20.4906 150.107 21.0376 150.053 21.5299C150.053 22.0223 150.053 22.4599 149.998 22.8428C149.998 23.2257 149.998 23.4993 149.998 23.7181C150.818 22.5146 151.53 21.4752 152.241 20.5453C152.897 19.6153 153.608 18.74 154.21 17.9742H156.617Z" fill="white"/>
</svg>
